<svg xmlns="http://www.w3.org/2000/svg" version="1.0" width="1080.000000pt" height="1080.000000pt" viewBox="0 0 1080.000000 1080.000000" preserveAspectRatio="xMidYMid meet">

<g transform="translate(0.000000,1080.000000) scale(0.100000,-0.100000)" fill="#808080" stroke="none">
<path d="M5163 10569 c-128 -21 -215 -79 -228 -151 -3 -18 -5 -85 -3 -148 l3 -115 233 -3 232 -2 0 -30 0 -30 -343 0 c-407 0 -421 -2 -501 -83 -89 -89 -123 -225 -112 -438 9 -187 59 -307 154 -374 41 -28 50 -30 157 -33 l112 -4 5 149 c5 166 22 224 81 281 65 63 81 66 422 72 301 5 311 6 358 29 26 13 60 39 74 57 48 64 52 90 53 372 0 239 -2 266 -19 300 -10 20 -30 47 -43 58 -39 37 -127 75 -205 90 -82 15 -343 17 -430 3z m32 -159 c30 -30 26 -87 -9 -116 -33 -29 -65 -30 -99 -4 -31 25 -41 63 -25 98 26 53 90 63 133 22z" fill="#808080"/>
<path d="M5920 9958 c0 -174 -13 -221 -76 -284 -68 -68 -101 -74 -419 -74 -301 0 -342 -6 -407 -60 -20 -16 -47 -51 -60 -77 -22 -46 -23 -60 -26 -293 -4 -282 0 -311 59 -375 82 -89 205 -119 469 -112 214 5 294 23 358 82 l37 33 3 151 3 151 -230 0 -231 0 0 35 0 35 348 0 c387 0 406 3 479 64 48 42 86 111 108 196 22 85 17 369 -8 445 -28 85 -77 156 -131 190 -46 28 -57 30 -163 33 l-113 4 0 -144z m-197 -999 c33 -40 21 -101 -25 -125 -51 -26 -118 14 -118 70 1 76 95 112 143 55z" fill="#808080"/>
<path d="M3169 8347 c-340 -348 -374 -392 -423 -538 -69 -205 -56 -400 39 -594 98 -202 289 -360 501 -416 101 -26 287 -28 387 -5 234 56 452 243 546 469 114 276 63 584 -138 817 l-30 35 -70 -69 -69 -69 43 -52 c51 -63 89 -141 111 -227 22 -86 15 -249 -16 -335 -64 -182 -216 -323 -403 -373 -104 -28 -248 -24 -344 10 -182 64 -330 224 -378 409 -20 80 -20 217 0 296 37 138 61 172 322 436 l243 247 0 141 c0 77 -1 141 -3 141 -1 0 -144 -145 -318 -323z" fill="#808080"/>
<path d="M7465 8546 l280 -113 27 20 c18 14 37 18 63 15 35 -4 39 -1 102 76 36 45 73 89 81 99 14 16 -6 17 -409 17 l-424 -1 280 -113z" fill="#808080"/>
<path d="M6823 8473 c-150 -98 -269 -179 -265 -180 4 -1 95 15 202 35 177 34 195 39 198 58 5 35 48 68 89 68 27 0 42 -7 64 -32 l29 -32 262 1 c145 1 276 4 292 8 25 5 -18 25 -267 124 -163 65 -304 121 -314 123 -12 3 -118 -60 -290 -173z" fill="#808080"/>
<path d="M7976 8536 c-70 -86 -76 -96 -66 -120 14 -39 13 -49 -13 -87 l-23 -34 81 -255 c80 -252 81 -254 112 -262 32 -8 73 -50 73 -74 0 -14 13 -19 73 -30 28 -5 37 -3 37 7 1 28 -185 949 -191 949 -4 0 -41 -42 -83 -94z" fill="#808080"/>
<path d="M3707 8336 c-88 -82 6 -226 112 -172 31 16 61 61 61 91 0 31 -31 82 -56 94 -41 19 -88 13 -117 -13z" fill="#808080"/>
<path d="M7258 8353 c-94 -3 -128 -7 -128 -16 0 -7 26 -38 58 -69 53 -53 60 -57 101 -55 39 1 47 -3 76 -35 30 -35 36 -38 124 -50 86 -11 94 -11 103 6 12 21 71 48 90 41 8 -3 27 21 51 65 38 69 38 70 20 95 l-18 24 -175 -1 c-96 -2 -232 -4 -302 -5z" fill="#808080"/>
<path d="M6716 8286 l-220 -42 -68 -325 c-37 -178 -66 -328 -65 -332 1 -5 45 37 97 93 93 101 94 103 91 149 -3 61 30 96 90 95 40 -1 42 0 137 120 189 236 202 254 196 270 -8 20 0 21 -258 -28z" fill="#808080"/>
<path d="M7093 8289 c-7 -7 -29 -13 -49 -13 -36 -2 -43 -9 -186 -188 -146 -184 -148 -187 -140 -224 7 -36 10 -38 81 -62 65 -22 76 -23 85 -10 17 23 55 40 81 36 19 -2 44 20 134 121 100 112 111 128 109 160 0 20 2 45 5 56 9 28 -102 142 -120 124z" fill="#808080"/>
<path d="M7792 8278 c-5 -7 -22 -37 -36 -66 -25 -50 -26 -53 -10 -77 12 -18 15 -38 11 -67 l-6 -41 121 -129 c67 -70 123 -126 126 -124 3 4 -32 119 -144 469 -16 48 -40 62 -62 35z" fill="#808080"/>
<path d="M7380 8096 c0 -8 -14 -26 -30 -39 l-30 -26 11 -100 c16 -140 24 -141 157 -8 89 88 102 105 97 127 -8 32 -3 29 -76 40 -35 6 -79 12 -96 15 -25 5 -33 2 -33 -9z" fill="#808080"/>
<path d="M7127 7930 c-99 -112 -106 -122 -95 -145 11 -24 14 -25 115 -25 68 0 103 4 103 11 0 6 13 23 30 39 l29 27 -10 94 c-12 100 -13 103 -45 113 -16 5 -39 -16 -127 -114z" fill="#808080"/>
<path d="M7517 7902 c-102 -102 -107 -109 -99 -137 5 -17 7 -35 5 -41 -2 -6 24 -26 57 -43 55 -30 64 -32 91 -21 16 7 31 22 34 34 14 64 36 299 28 307 -5 5 -55 -38 -116 -99z" fill="#808080"/>
<path d="M7684 7992 c-16 -11 -50 -325 -35 -330 6 -2 18 -11 27 -20 15 -14 27 -13 142 12 70 16 130 31 133 35 4 3 9 18 12 32 6 22 -9 42 -114 152 -113 119 -138 137 -165 119z" fill="#808080"/>
<path d="M6702 7778 c-7 -7 -12 -17 -12 -22 0 -6 37 -107 82 -223 72 -184 86 -213 104 -213 12 0 34 -10 49 -22 l27 -21 102 33 c98 31 102 34 113 69 l11 36 -95 117 c-86 107 -98 118 -128 118 -41 0 -81 31 -88 68 -5 24 -14 30 -75 50 -80 26 -75 25 -90 10z" fill="#808080"/>
<path d="M6474 7645 c-58 -62 -107 -116 -107 -120 -2 -7 366 -575 373 -575 3 0 22 45 43 100 l38 100 -20 22 c-28 29 -28 91 0 119 l20 20 -83 214 -83 214 -38 9 -37 10 -106 -113z" fill="#808080"/>
<path d="M7031 7694 c-7 -15 -8 -31 -3 -38 65 -85 177 -216 186 -216 28 1 42 26 62 117 l22 98 -24 22 c-13 12 -24 27 -24 33 0 6 -38 10 -103 10 -102 0 -104 0 -116 -26z" fill="#808080"/>
<path d="M7395 7671 c-3 -5 -18 -12 -34 -16 -27 -6 -31 -12 -45 -78 -28 -128 -29 -132 -13 -145 11 -10 33 1 113 52 83 53 100 68 105 95 7 34 9 33 -74 79 -44 25 -44 25 -52 13z" fill="#808080"/>
<path d="M7855 7629 c-154 -38 -155 -38 -155 -62 0 -22 -32 -67 -48 -67 -29 -1 -36 -25 -47 -162 -7 -78 -9 -147 -5 -151 9 -11 382 442 374 455 -7 11 -26 9 -119 -13z" fill="#808080"/>
<path d="M8106 7624 c-24 -21 -37 -25 -66 -21 l-37 5 -182 -223 c-127 -158 -179 -228 -175 -240 4 -11 14 -15 28 -12 11 3 110 18 219 33 161 22 200 31 208 45 19 36 150 411 146 416 -7 6 -77 23 -97 22 -8 0 -28 -11 -44 -25z" fill="#808080"/>
<path d="M7438 7457 c-96 -61 -98 -63 -98 -100 0 -76 -91 -117 -146 -66 l-23 21 -98 -32 c-54 -18 -102 -36 -106 -40 -8 -7 72 -24 390 -82 l122 -22 27 27 c15 15 32 27 39 27 13 0 20 43 31 208 6 84 5 94 -12 107 -10 8 -21 14 -24 14 -3 1 -49 -27 -102 -62z" fill="#808080"/>
<path d="M6929 7170 c-16 -18 -37 -30 -50 -30 -21 0 -29 -13 -66 -107 -41 -107 -41 -108 -20 -115 43 -14 659 -140 663 -135 2 2 19 56 38 119 l33 115 -24 27 c-13 15 -23 33 -23 41 0 15 -7 17 -300 70 -107 20 -202 38 -210 40 -8 2 -27 -9 -41 -25z" fill="#808080"/>
<path d="M7833 7122 c-131 -19 -173 -29 -173 -39 0 -22 -56 -73 -79 -73 -16 0 -24 -13 -41 -72 -12 -40 -26 -88 -32 -106 -5 -18 -8 -35 -6 -36 3 -3 519 332 534 347 10 10 -7 8 -203 -21z" fill="#808080"/>
<path d="M4480 5399 l0 -950 43 25 c23 14 95 56 159 93 l118 68 0 268 c0 147 2 267 4 267 2 0 51 -27 108 -61 56 -33 111 -65 121 -70 16 -9 17 0 15 172 l-3 183 -120 71 -120 71 -3 102 c-1 56 1 102 5 102 5 0 114 -61 242 -135 128 -74 235 -135 237 -135 2 0 4 94 4 208 l0 208 -405 231 -405 232 0 -950z" fill="#808080"/>
<path d="M3990 6112 l-395 -227 -3 -207 c-1 -115 0 -208 4 -208 4 0 111 61 240 135 128 74 235 135 238 135 3 0 7 -249 8 -552 l3 -553 125 -73 c69 -40 142 -82 163 -93 l37 -19 0 945 c0 750 -3 945 -12 945 -7 -1 -191 -103 -408 -228z" fill="#808080"/>
<path d="M5720 5310 l0 -950 945 0 945 0 0 950 0 950 -945 0 -945 0 0 -950z m678 287 l2 -248 257 250 256 251 79 0 c64 0 80 -3 85 -17 5 -12 -45 -67 -196 -216 l-203 -199 35 -51 c19 -29 116 -171 215 -316 100 -145 179 -267 176 -272 -3 -5 -42 -9 -87 -9 l-82 1 -180 268 -181 269 -87 -80 -87 -80 0 -189 0 -190 -72 3 -73 3 -3 515 c-1 283 0 525 3 538 5 21 10 23 73 20 l67 -3 3 -248z" fill="#808080"/>
<path d="M3810 3971 c0 -75 -30 -164 -67 -204 -16 -15 -69 -58 -120 -93 -231 -165 -293 -297 -215 -457 47 -95 185 -238 208 -215 2 3 -11 40 -30 84 -41 97 -66 195 -66 257 0 44 4 51 53 100 28 28 95 88 147 133 124 104 164 173 164 279 0 55 -5 81 -24 120 -36 71 -50 70 -50 -4z" fill="#808080"/>
<path d="M6861 3722 c-10 -19 2 -51 26 -65 23 -14 14 -41 -23 -73 -33 -27 -36 -32 -25 -53 17 -30 -6 -64 -50 -77 -44 -13 -60 -40 -35 -60 17 -12 17 -14 4 -14 -9 0 -33 -15 -52 -34 -30 -28 -36 -40 -36 -75 0 -23 7 -55 15 -71 8 -16 31 -91 50 -167 42 -164 62 -220 120 -335 175 -347 408 -541 737 -612 91 -20 255 -36 357 -36 96 0 297 24 336 40 17 7 55 14 85 15 30 2 85 11 123 20 63 16 67 19 67 45 0 16 -4 31 -8 34 -7 4 -77 6 -202 5 -19 0 -60 1 -90 3 -61 4 -64 10 -29 58 23 30 19 50 -10 50 -25 0 -73 -39 -65 -52 4 -6 3 -8 -3 -5 -6 4 -20 -4 -32 -17 -22 -23 -24 -24 -84 -10 -192 45 -348 137 -463 276 -123 147 -160 220 -193 384 -22 108 -46 402 -36 434 8 24 40 26 108 5 45 -13 77 -12 77 4 0 24 -72 68 -160 96 -30 10 -67 26 -82 36 -14 11 -30 19 -36 19 -5 0 -23 14 -40 30 -20 18 -43 30 -59 30 -36 0 -79 23 -75 39 6 26 -20 41 -68 41 -52 0 -61 9 -53 53 6 30 -11 57 -36 57 -14 -1 -14 -2 2 -11 26 -16 20 -26 -18 -31 -34 -4 -34 -4 -20 19 14 20 14 23 1 23 -9 0 -20 -8 -25 -18z m144 -122 c-3 -5 -10 -10 -16 -10 -5 0 -9 5 -9 10 0 6 7 10 16 10 8 0 12 -4 9 -10z m30 -54 c27 -11 32 -19 28 -35 -7 -28 -37 -26 -57 4 -16 24 -21 45 -11 45 3 0 21 -6 40 -14z m-41 -35 c5 -8 -83 -22 -93 -15 -4 3 57 22 76 23 6 1 14 -3 17 -8z m141 -31 c-4 -6 -1 -18 7 -27 11 -15 11 -16 -4 -10 -12 4 -18 2 -18 -8 0 -26 -21 -27 -46 -4 -15 14 -28 19 -32 14 -4 -6 -38 -10 -77 -11 -78 -1 -78 -1 44 31 97 26 135 30 126 15z m235 -73 c0 -13 -8 -31 -19 -41 -25 -23 -136 -53 -224 -62 -40 -4 -90 -16 -111 -26 -59 -30 -116 -48 -116 -38 0 6 -13 10 -30 10 -20 0 -30 -5 -30 -15 0 -20 -29 -19 -52 2 -21 19 -23 39 -5 46 6 3 3 6 -9 6 -29 1 -44 -18 -44 -58 0 -39 -14 -33 -25 10 -5 20 -1 32 16 47 26 25 81 40 87 23 7 -22 34 -41 58 -41 13 0 24 5 24 10 0 6 -5 10 -11 10 -6 0 -9 7 -5 15 3 8 1 15 -4 15 -6 0 -10 4 -10 9 0 5 37 18 83 30 45 12 114 30 152 41 93 25 115 25 115 0 0 -11 7 -20 15 -20 18 0 20 21 3 38 -9 9 5 12 65 12 74 0 77 -1 77 -23z m-560 -7 c-8 -5 -19 -10 -25 -10 -5 0 -3 5 5 10 8 5 20 10 25 10 6 0 3 -5 -5 -10z m695 -41 c11 -17 2 -18 -19 -3 -17 12 -17 14 -4 14 9 0 20 -5 23 -11z m-185 -68 c12 -23 13 -81 2 -81 -5 0 -5 -21 -1 -47 22 -130 27 -227 13 -241 -8 -7 -14 -19 -14 -25 0 -8 4 -7 12 1 19 19 25 14 33 -25 3 -21 15 -67 26 -102 14 -46 16 -67 9 -76 -8 -10 -4 -21 17 -41 15 -16 31 -28 35 -27 4 2 16 -10 28 -25 63 -83 116 -160 127 -185 15 -32 86 -80 154 -102 26 -9 50 -22 53 -30 7 -20 85 -58 107 -52 10 3 20 -1 23 -8 2 -7 25 -17 50 -24 25 -6 46 -16 46 -23 0 -17 -96 -2 -165 27 -62 25 -129 33 -140 15 -3 -5 -11 -10 -17 -10 -6 0 -5 7 3 17 8 10 2 8 -16 -6 l-30 -23 -14 21 c-7 12 -23 21 -35 21 -35 0 -49 15 -42 44 6 24 4 26 -29 26 -41 0 -105 24 -105 39 0 6 11 11 25 11 16 0 23 -4 19 -14 -3 -8 4 -16 18 -20 59 -15 62 -1 11 50 -22 23 -83 59 -152 92 -64 30 -111 57 -104 59 6 2 28 -5 49 -16 40 -21 54 -20 54 6 0 20 -28 53 -45 53 -6 0 -27 11 -45 25 -33 24 -33 26 -13 31 33 9 35 30 6 64 -28 34 -41 34 -23 1 6 -12 7 -21 1 -21 -5 0 -12 11 -15 24 -6 25 -47 47 -54 28 -4 -12 -44 -3 -54 12 -4 6 -8 20 -8 31 0 10 -14 33 -30 50 l-31 32 31 -5 c35 -5 38 5 9 42 -11 14 -15 26 -9 26 6 0 8 4 5 10 -3 5 -16 -2 -29 -17 -26 -30 -45 -25 -38 12 2 15 0 25 -7 25 -6 0 -11 -13 -11 -30 0 -22 -5 -30 -17 -30 -13 0 -9 -8 16 -34 27 -28 30 -34 16 -40 -28 -10 -33 -7 -40 24 -4 16 -16 36 -27 44 -11 8 -17 19 -14 25 4 5 -3 19 -15 29 -17 17 -19 24 -9 42 19 35 45 21 45 -24 0 -22 5 -41 13 -43 8 -3 12 8 12 35 0 43 -20 68 -60 74 -50 6 -25 72 30 80 26 3 26 6 18 78 -2 20 2 25 24 26 32 3 68 21 68 34 0 6 11 10 25 10 14 0 25 5 25 11 0 8 12 10 36 6 29 -5 34 -3 25 7 -9 11 0 17 46 28 79 21 81 21 93 -1z m-361 -127 c9 -8 -13 -24 -32 -23 -14 0 -17 3 -8 6 10 4 8 9 -10 19 -23 13 -22 13 11 7 19 -3 37 -7 39 -9z m-99 -24 c0 -5 -4 -10 -9 -10 -6 0 -13 5 -16 10 -3 6 1 10 9 10 9 0 16 -4 16 -10z m-70 -110 c0 -5 -2 -10 -4 -10 -3 0 -8 5 -11 10 -3 6 -1 10 4 10 6 0 11 -4 11 -10z m70 0 c0 -5 -7 -7 -15 -4 -8 4 -15 8 -15 10 0 2 7 4 15 4 8 0 15 -4 15 -10z m-25 -134 c2 -17 13 -53 24 -80 16 -37 18 -46 6 -36 -49 41 43 -120 125 -217 10 -13 24 -39 30 -58 7 -22 23 -41 40 -50 16 -8 31 -24 35 -35 3 -11 10 -20 15 -20 5 0 24 -16 41 -35 18 -19 37 -35 42 -35 13 0 47 -30 47 -42 0 -44 -171 103 -226 194 -21 35 -59 95 -84 133 -62 92 -93 154 -86 171 3 8 -10 48 -29 90 -38 83 -43 100 -19 69 15 -19 15 -19 9 10 l-6 30 17 -29 c9 -16 18 -43 19 -60z m255 -114 c0 -9 12 -33 26 -54 15 -21 25 -40 23 -42 -9 -9 -130 58 -140 76 -14 26 -4 34 26 20 41 -19 57 -15 50 9 -5 15 -4 19 4 15 6 -4 11 -15 11 -24z m89 -138 c3 -3 0 -8 -6 -12 -14 -9 -11 -41 4 -50 12 -8 55 -82 48 -82 -9 0 -115 62 -115 67 0 2 6 1 13 -3 7 -4 6 0 -3 12 -23 29 -43 67 -32 60 6 -3 13 1 16 10 5 12 14 15 38 10 17 -3 34 -9 37 -12z m101 -164 c8 -5 11 -10 5 -10 -5 0 -17 5 -25 10 -8 5 -10 10 -5 10 6 0 17 -5 25 -10z m-24 -36 c34 -14 36 -17 20 -26 -22 -12 -87 4 -106 27 -11 13 -8 15 18 15 16 0 47 -7 68 -16z m94 -14 c28 -16 31 -19 14 -20 -12 0 -32 9 -45 20 -30 25 -14 25 31 0z m60 5 l25 -15 -30 6 c-16 4 -37 10 -45 15 -12 7 -11 8 5 8 11 0 31 -6 45 -14z m-30 -45 c13 -8 13 -10 -2 -10 -9 0 -20 5 -23 10 -8 13 5 13 25 0z m10 -50 c13 -9 13 -10 0 -10 -8 0 -22 5 -30 10 -13 9 -13 10 0 10 8 0 22 -5 30 -10z m177 -76 c-3 -3 -12 -4 -19 -1 -8 3 -5 6 6 6 11 1 17 -2 13 -5z m-176 -65 c34 -17 68 -28 76 -25 8 3 12 2 9 -3 -8 -13 121 -59 198 -71 38 -6 92 -11 120 -11 112 1 205 -4 212 -11 13 -14 -205 -8 -315 7 -173 25 -368 93 -368 129 0 21 -3 21 68 -15z m429 -7 c0 -10 -3 -21 -6 -24 -9 -10 -42 3 -48 19 -3 7 -2 12 2 9 4 -2 14 -1 22 5 22 13 30 11 30 -9z m430 -13 c9 -5 -18 -9 -67 -9 -75 0 -105 10 -70 23 16 7 118 -4 137 -14z m-384 -6 c-2 -9 -9 -19 -17 -21 -11 -3 -11 -1 1 7 13 9 12 11 -3 11 -10 0 -15 5 -12 10 10 17 33 11 31 -7z m622 0 c-10 -2 -26 -2 -35 0 -10 3 -2 5 17 5 19 0 27 -2 18 -5z m-582 -12 c-4 -5 -1 -12 4 -14 6 -3 5 -4 -2 -3 -15 3 -23 26 -8 26 6 0 9 -4 6 -9z m-247 -37 c8 -8 -30 -4 -75 7 -69 18 -61 28 9 12 34 -8 64 -16 66 -19z m321 22 c0 -2 -7 -7 -16 -10 -8 -3 -12 -2 -9 4 6 10 25 14 25 6z" fill="#808080"/>
<path d="M7265 3400 c-3 -6 1 -7 9 -4 18 7 21 14 7 14 -6 0 -13 -4 -16 -10z" fill="#808080"/>
<path d="M7051 3371 c-8 -5 2 -8 28 -6 23 1 44 5 48 9 10 9 -60 7 -76 -3z" fill="#808080"/>
<path d="M6970 3330 c0 -5 9 -10 21 -10 11 0 17 5 14 10 -3 6 -13 10 -21 10 -8 0 -14 -4 -14 -10z" fill="#808080"/>
<path d="M6937 3313 c-8 -8 23 -32 42 -33 11 0 10 5 -4 20 -19 21 -28 24 -38 13z" fill="#808080"/>
<path d="M7276 3214 c-9 -24 -7 -74 3 -74 19 0 33 30 26 60 -7 33 -19 39 -29 14z m21 -36 c-3 -8 -6 -5 -6 6 -1 11 2 17 5 13 3 -3 4 -12 1 -19z" fill="#808080"/>
<path d="M7060 3127 c0 -13 19 -37 30 -37 14 0 6 28 -12 39 -14 9 -18 8 -18 -2z" fill="#808080"/>
<path d="M7030 3080 c-13 -8 -13 -11 0 -24 8 -8 29 -18 45 -21 l30 -7 -25 21 c-14 11 -29 21 -35 21 -5 0 -3 5 5 10 8 5 11 10 5 10 -5 0 -17 -5 -25 -10z" fill="#808080"/>
<path d="M7080 3070 c8 -5 20 -10 25 -10 6 0 3 5 -5 10 -8 5 -19 10 -25 10 -5 0 -3 -5 5 -10z" fill="#808080"/>
<path d="M7006 3040 c12 -12 28 -20 35 -18 9 3 0 12 -21 22 l-35 18 21 -22z" fill="#808080"/>
<path d="M6990 3025 c14 -17 13 -18 -5 -11 -17 6 -17 4 4 -18 13 -14 28 -23 32 -20 17 10 9 32 -18 50 -27 17 -28 17 -13 -1z" fill="#808080"/>
<path d="M7240 2943 c1 -42 26 -87 35 -62 10 29 -8 99 -26 99 -5 0 -9 -17 -9 -37z" fill="#808080"/>
<path d="M7124 2940 c5 -24 4 -24 -9 -6 -20 26 -19 3 1 -39 11 -24 20 -31 34 -28 31 8 31 32 -1 66 -30 31 -30 31 -25 7z" fill="#808080"/>
<path d="M7370 2733 c0 -4 5 -15 10 -23 8 -13 10 -13 10 2 0 9 -4 20 -10 23 -5 3 -10 3 -10 -2z" fill="#808080"/>
<path d="M7511 2495 c0 -14 28 -50 34 -43 3 3 -3 16 -14 29 -11 13 -20 20 -20 14z" fill="#808080"/>
<path d="M7360 2190 c19 -11 40 -19 45 -19 6 0 -6 8 -25 19 -19 11 -39 19 -45 19 -5 0 6 -8 25 -19z" fill="#808080"/>
<path d="M3892 3592 c-283 -144 -333 -260 -199 -458 l50 -75 -16 -59 c-20 -72 -20 -70 -3 -70 8 0 36 24 63 54 87 95 90 161 14 280 -61 98 -37 149 139 295 63 52 76 71 55 77 -5 2 -52 -18 -103 -44z" fill="#808080"/>
<path d="M4105 3012 c-68 -23 -67 -45 4 -54 69 -8 105 -34 109 -79 4 -46 -36 -101 -128 -176 -38 -31 -67 -60 -64 -65 8 -13 57 -1 141 34 133 54 198 144 173 237 -28 105 -116 144 -235 103z" fill="#808080"/>
<path d="M3220 2989 c-130 -25 -167 -83 -89 -141 55 -40 142 -53 359 -52 174 0 219 4 300 22 92 21 240 84 240 102 0 17 -16 18 -85 4 -119 -22 -415 -36 -559 -25 -70 5 -130 12 -133 15 -8 8 38 29 101 46 89 25 84 40 -11 39 -43 -1 -98 -5 -123 -10z" fill="#808080"/>
<path d="M5610 2870 c-283 -37 -534 -192 -685 -424 -62 -95 -95 -166 -127 -274 -20 -67 -23 -97 -22 -242 1 -190 16 -262 83 -406 50 -106 111 -192 193 -274 126 -124 349 -247 404 -221 23 10 24 15 24 104 l0 94 -69 -5 c-128 -9 -198 32 -260 153 -35 70 -54 94 -98 124 -47 32 -43 51 10 51 51 0 117 -41 141 -88 23 -45 91 -100 133 -108 23 -4 58 -2 92 7 51 13 55 17 66 54 6 22 20 53 29 68 l18 27 -35 0 c-54 0 -186 47 -237 85 -168 123 -212 434 -85 601 22 28 23 36 13 70 -12 43 -6 144 11 187 17 43 68 37 182 -21 l94 -48 55 14 c66 15 340 11 383 -6 24 -10 33 -8 74 18 61 39 145 70 187 70 33 0 35 -2 46 -52 8 -32 10 -81 7 -131 -6 -73 -5 -81 17 -110 48 -63 61 -114 61 -232 -1 -174 -44 -277 -149 -356 -53 -40 -184 -89 -239 -89 l-34 0 29 -56 c27 -56 28 -60 28 -228 0 -94 4 -176 8 -182 15 -24 49 -24 109 0 129 50 281 158 365 258 177 210 253 448 227 715 -31 335 -235 623 -542 769 -143 68 -358 103 -507 84z" fill="#808080"/>
<path d="M3271 2762 c-93 -47 -51 -106 95 -137 119 -25 284 -18 489 21 136 26 140 31 74 78 l-41 29 -101 -19 c-108 -20 -358 -26 -430 -11 -36 8 -38 9 -23 26 9 10 16 21 16 24 0 13 -45 7 -79 -11z" fill="#808080"/>
<path d="M3308 2564 c-40 -21 -41 -66 -3 -101 49 -44 271 -73 410 -54 103 14 225 50 225 66 0 7 -23 28 -51 46 l-51 32 -113 -17 c-93 -14 -131 -15 -215 -6 -112 11 -122 14 -113 35 7 20 -52 20 -89 -1z" fill="#808080"/>
<path d="M3071 2435 c-93 -17 -126 -40 -126 -86 0 -69 106 -104 370 -121 357 -23 807 33 909 113 29 23 34 60 10 83 -21 22 -34 20 -34 -4 0 -24 -17 -33 -103 -54 -261 -65 -835 -68 -992 -5 l-30 11 30 14 c17 7 54 18 83 25 31 7 52 18 52 26 0 17 -68 16 -169 -2z" fill="#808080"/>
<path d="M4281 2316 c-50 -37 -151 -74 -254 -93 -75 -13 -159 -17 -454 -17 -295 1 -363 -2 -363 -13 0 -7 1 -13 3 -13 1 0 40 -7 86 -15 293 -51 712 -39 887 26 86 32 165 112 137 140 -5 5 -22 -1 -42 -15z" fill="#808080"/>
</g>
</svg>