<svg xmlns="http://www.w3.org/2000/svg" version="1.0" width="1080.000000pt" height="1080.000000pt" viewBox="0 0 1080.000000 1080.000000" preserveAspectRatio="xMidYMid meet">

<g transform="translate(0.000000,1080.000000) scale(0.100000,-0.100000)" fill="#808080" stroke="none">
<path d="M5070 10131 c-154 -17 -259 -63 -286 -126 -10 -24 -14 -75 -14 -165 l0 -130 235 0 235 0 0 -35 0 -34 -367 -3 c-341 -3 -371 -4 -407 -22 -114 -57 -171 -174 -182 -371 -15 -253 44 -432 165 -503 41 -24 59 -27 152 -30 l107 -4 4 154 c4 144 6 158 32 211 15 32 43 69 62 83 65 50 89 53 385 54 248 0 284 2 342 20 75 23 138 83 156 146 14 52 15 543 0 581 -25 68 -117 131 -231 158 -77 18 -286 26 -388 16z m-52 -157 c35 -24 44 -59 28 -98 -37 -88 -175 -42 -151 51 13 55 77 79 123 47z" fill="#808080"/>
<path d="M5758 9493 c-3 -152 -4 -160 -32 -210 -30 -55 -79 -96 -137 -115 -20 -6 -158 -13 -339 -17 -269 -5 -309 -8 -342 -24 -51 -26 -87 -63 -112 -117 -19 -41 -21 -67 -24 -291 -2 -153 0 -260 7 -285 38 -142 222 -212 531 -201 167 6 247 22 317 63 66 38 73 61 73 224 l0 140 -230 0 -230 0 0 29 0 30 358 3 c410 4 408 3 489 92 33 36 56 74 73 122 23 64 25 82 25 254 0 167 -2 191 -23 252 -29 84 -70 141 -129 178 -45 29 -52 30 -159 30 l-112 0 -4 -157z m-201 -975 c30 -28 31 -83 1 -115 -31 -33 -90 -32 -117 3 -63 80 42 181 116 112z" fill="#808080"/>
<path d="M2654 8358 c-179 -181 -327 -338 -349 -372 -195 -300 -161 -698 81 -955 119 -126 256 -207 409 -240 91 -20 275 -16 366 8 284 74 513 314 575 601 18 85 18 248 -1 330 -29 125 -115 290 -188 358 l-23 22 -68 -69 -67 -68 37 -44 c73 -87 133 -252 134 -367 0 -147 -68 -311 -175 -417 -184 -184 -445 -227 -684 -112 -92 44 -214 167 -259 261 -90 186 -78 410 29 577 25 38 133 156 270 295 l229 231 0 136 c0 76 -1 137 -3 137 -1 0 -142 -141 -313 -312z" fill="#808080"/>
<path d="M7415 8649 c11 -5 137 -56 280 -113 l260 -104 24 20 c17 13 38 18 62 17 36 -3 40 1 113 89 42 50 76 94 76 97 0 3 -188 5 -417 4 -272 0 -411 -4 -398 -10z" fill="#808080"/>
<path d="M7027 8473 c-147 -97 -266 -177 -265 -179 2 -2 92 14 199 34 l196 37 9 30 c6 20 21 36 46 48 33 16 40 17 71 3 20 -8 40 -24 47 -35 10 -20 18 -21 259 -21 136 0 270 3 296 7 l47 6 -308 124 c-170 67 -313 123 -319 122 -5 0 -131 -79 -278 -176z" fill="#808080"/>
<path d="M8182 8538 c-57 -70 -79 -105 -72 -112 18 -18 11 -78 -12 -103 l-22 -23 84 -260 c78 -243 85 -260 107 -260 29 0 73 -42 73 -68 0 -23 10 -28 75 -38 47 -7 48 -6 42 17 -3 13 -47 231 -97 484 -51 253 -93 461 -94 462 -1 1 -39 -44 -84 -99z" fill="#808080"/>
<path d="M3188 8340 c-60 -47 -57 -133 6 -171 47 -29 82 -25 122 15 28 28 34 42 34 76 0 83 -97 132 -162 80z" fill="#808080"/>
<path d="M7468 8353 c-156 -4 -161 -10 -75 -88 49 -45 67 -55 87 -52 35 7 88 -17 101 -46 10 -22 21 -26 106 -37 l94 -13 28 27 c18 17 40 28 60 28 28 1 36 8 67 65 33 58 35 66 24 93 l-12 30 -177 -2 c-97 -1 -233 -4 -303 -5z" fill="#808080"/>
<path d="M6923 8287 c-116 -23 -214 -45 -217 -48 -7 -7 -136 -614 -136 -638 0 -9 43 27 95 79 l95 95 -6 41 c-3 24 -1 51 5 63 16 29 64 52 98 45 26 -5 37 6 176 181 85 107 147 194 145 203 -2 10 -12 18 -23 19 -11 0 -115 -18 -232 -40z" fill="#808080"/>
<path d="M7286 8283 c-4 -5 -23 -8 -41 -8 -32 0 -42 -11 -184 -189 -121 -153 -148 -193 -140 -207 5 -10 9 -26 9 -36 0 -15 16 -24 73 -40 l72 -22 23 21 c13 13 36 22 58 22 34 1 45 11 149 126 105 118 111 127 107 161 -2 20 1 45 6 56 9 17 3 27 -48 71 -59 52 -70 58 -84 45z" fill="#808080"/>
<path d="M7966 8222 c-31 -62 -34 -72 -20 -83 11 -9 15 -27 12 -63 l-3 -51 127 -130 127 -130 -14 50 c-8 28 -45 145 -83 260 -59 183 -71 210 -89 213 -18 3 -28 -9 -57 -66z" fill="#808080"/>
<path d="M7590 8101 c0 -5 -14 -24 -31 -41 l-32 -31 10 -96 c10 -92 19 -112 50 -113 6 0 56 48 110 106 72 78 97 112 95 128 -2 11 -5 22 -6 23 -1 1 -35 7 -76 13 -41 6 -85 13 -97 16 -13 2 -23 0 -23 -5z" fill="#808080"/>
<path d="M7332 7928 c-106 -118 -109 -123 -95 -145 14 -21 22 -23 110 -23 l94 0 36 38 35 37 -9 98 c-6 53 -12 99 -14 101 -2 2 -14 6 -26 10 -18 6 -38 -12 -131 -116z" fill="#808080"/>
<path d="M7721 7902 c-96 -102 -100 -109 -95 -142 9 -54 8 -53 66 -84 51 -27 56 -28 86 -15 18 8 32 19 32 24 0 10 24 208 34 282 8 61 -20 46 -123 -65z" fill="#808080"/>
<path d="M7903 7999 c-13 -5 -23 -12 -23 -16 0 -4 -9 -75 -19 -158 l-19 -150 26 -22 c34 -28 34 -28 171 5 107 25 115 29 127 57 12 30 11 31 -115 161 -111 116 -129 131 -148 123z" fill="#808080"/>
<path d="M6903 7771 c-10 -16 2 -54 72 -232 75 -193 86 -214 110 -221 15 -4 36 -15 47 -24 18 -17 23 -17 126 17 104 34 107 36 115 71 8 34 5 39 -85 152 -89 110 -95 116 -130 116 -44 0 -76 26 -84 69 -5 26 -14 31 -78 50 -86 25 -79 25 -93 2z" fill="#808080"/>
<path d="M6681 7646 c-61 -61 -111 -115 -111 -120 0 -14 372 -577 378 -571 8 7 72 175 72 187 0 5 -9 21 -20 35 -27 34 -25 76 3 109 l23 27 -82 210 c-80 205 -84 212 -117 223 l-34 12 -112 -112z" fill="#808080"/>
<path d="M7240 7701 c-5 -11 -10 -25 -10 -31 0 -6 39 -60 88 -120 116 -146 130 -145 162 2 l22 97 -29 35 -28 36 -97 0 c-86 0 -99 -2 -108 -19z" fill="#808080"/>
<path d="M7570 7659 c-32 -18 -36 -24 -57 -116 -20 -89 -21 -99 -6 -110 13 -10 26 -6 72 24 31 20 77 50 104 66 40 25 47 35 47 61 0 28 -7 35 -59 64 -32 17 -60 31 -62 31 -2 -1 -20 -10 -39 -20z" fill="#808080"/>
<path d="M8031 7622 c-112 -27 -115 -28 -126 -61 -12 -35 -48 -71 -71 -71 -8 0 -14 -9 -14 -20 0 -11 -5 -76 -11 -146 -7 -76 -8 -129 -2 -135 9 -9 365 419 371 447 5 19 -12 17 -147 -14z" fill="#808080"/>
<path d="M8330 7641 c0 -18 -61 -43 -92 -39 -28 5 -40 -7 -209 -215 -98 -120 -179 -225 -179 -232 0 -8 4 -16 8 -19 5 -3 107 10 227 27 l218 32 77 215 c87 240 87 222 -4 235 -31 5 -46 4 -46 -4z" fill="#808080"/>
<path d="M7639 7455 c-90 -59 -96 -65 -92 -92 4 -21 -2 -38 -22 -61 -33 -39 -87 -44 -129 -11 l-26 21 -98 -32 c-89 -30 -132 -50 -105 -50 5 0 118 -20 249 -45 252 -47 284 -51 284 -35 0 6 15 20 34 30 33 20 33 21 40 113 3 50 9 117 12 147 6 53 5 56 -20 68 -15 7 -28 12 -29 11 -1 0 -45 -29 -98 -64z" fill="#808080"/>
<path d="M7139 7174 c-13 -14 -36 -28 -52 -32 -26 -7 -34 -19 -69 -111 -22 -56 -38 -105 -35 -108 12 -11 670 -144 677 -136 4 4 22 57 39 117 28 96 30 110 17 125 -8 9 -19 28 -25 43 -6 16 -20 30 -33 32 -13 3 -122 24 -243 46 -121 22 -228 42 -237 44 -9 2 -27 -7 -39 -20z" fill="#808080"/>
<path d="M8037 7121 l-168 -26 -15 -31 c-14 -29 -49 -54 -77 -54 -7 0 -26 -48 -43 -110 -17 -60 -26 -106 -20 -103 19 12 531 345 535 349 8 8 -47 1 -212 -25z" fill="#808080"/>
<path d="M5352 6675 c-24 -20 -32 -35 -32 -61 0 -24 -5 -34 -15 -34 -9 0 -15 9 -15 21 0 11 -14 34 -30 51 -26 25 -36 29 -63 24 -46 -9 -70 -42 -64 -88 4 -32 2 -38 -14 -38 -12 0 -19 7 -19 18 0 10 -11 29 -25 42 -34 32 -83 30 -113 -6 -23 -26 -25 -44 -11 -93 2 -8 -4 -17 -13 -19 -11 -2 -18 2 -18 12 0 20 -48 56 -75 56 -40 0 -75 -37 -75 -79 0 -20 5 -42 12 -49 9 -9 9 -15 0 -24 -9 -9 -17 -5 -35 14 -31 34 -62 43 -97 28 -50 -21 -62 -86 -23 -126 12 -11 13 -18 4 -27 -8 -8 -17 -5 -35 12 -33 31 -93 32 -118 1 -24 -30 -23 -82 2 -105 11 -10 20 -24 20 -32 0 -18 -25 -17 -40 2 -20 24 -73 19 -100 -10 -33 -35 -31 -81 4 -112 17 -14 26 -30 22 -39 -5 -14 -8 -14 -28 0 -32 22 -62 20 -94 -8 -49 -41 -33 -118 28 -138 7 -3 9 -12 4 -23 -5 -14 -9 -16 -18 -7 -18 18 -63 14 -92 -9 -35 -28 -36 -80 -1 -114 13 -14 33 -25 44 -25 14 0 19 -5 15 -15 -4 -10 -20 -15 -49 -15 -52 0 -79 -26 -79 -75 0 -43 28 -75 66 -75 22 0 28 -5 28 -21 0 -15 -5 -19 -19 -14 -45 14 -110 -48 -94 -92 13 -37 46 -63 80 -63 26 0 33 -4 33 -20 0 -15 -7 -20 -29 -20 -20 0 -36 -9 -50 -26 -27 -34 -27 -64 0 -98 17 -21 29 -26 65 -26 32 0 44 -4 44 -15 0 -8 -8 -15 -18 -15 -24 0 -59 -37 -67 -72 -6 -22 -1 -33 23 -58 32 -31 60 -37 93 -20 15 9 21 7 26 -6 4 -11 1 -20 -7 -22 -26 -9 -60 -51 -60 -75 0 -42 36 -77 79 -77 20 0 42 5 49 12 9 9 15 9 24 0 8 -8 3 -18 -20 -41 -40 -37 -43 -81 -7 -116 28 -29 70 -32 104 -9 32 23 53 2 23 -23 -35 -29 -38 -74 -10 -108 32 -36 78 -38 113 -5 33 31 56 14 31 -21 -23 -34 -20 -76 9 -104 34 -35 76 -33 108 5 16 19 31 28 41 24 14 -5 14 -8 1 -27 -33 -47 -9 -110 45 -122 36 -8 75 13 92 50 18 39 36 20 30 -34 -4 -43 -1 -50 23 -69 15 -12 40 -22 55 -22 29 0 70 36 70 63 0 9 4 18 8 21 16 10 27 -10 28 -48 1 -48 31 -76 80 -76 40 0 74 29 74 63 0 13 3 26 6 30 11 11 33 -4 27 -19 -7 -20 16 -73 38 -84 51 -28 108 4 118 65 7 44 31 61 31 21 0 -32 37 -73 72 -82 22 -5 34 0 59 25 27 27 31 37 26 66 -5 30 -3 35 14 35 12 0 19 -7 19 -20 0 -49 79 -79 122 -46 26 19 40 64 28 86 -14 26 -12 40 5 40 9 0 20 -11 25 -24 5 -14 18 -30 29 -35 72 -39 151 41 109 109 -10 16 -10 22 1 32 11 11 14 10 19 -1 10 -29 43 -51 75 -51 64 0 99 74 61 129 -27 37 -2 49 36 17 35 -29 48 -31 84 -15 36 17 52 61 36 99 -7 17 -20 35 -29 40 -12 7 -13 12 -4 21 9 9 17 8 34 -5 36 -25 84 -21 108 10 29 37 26 70 -9 105 -36 36 -32 67 6 42 26 -16 75 -13 100 8 39 32 22 119 -26 134 -11 3 -20 13 -20 20 0 11 10 13 43 9 34 -5 47 -2 70 16 49 39 29 121 -34 135 -44 10 -30 29 23 33 56 4 82 29 82 78 0 41 -20 64 -65 73 -20 4 -35 14 -37 24 -3 13 4 17 33 17 76 0 112 84 59 137 -19 19 -33 24 -55 21 -23 -4 -29 -1 -29 14 0 12 7 18 21 18 32 0 55 16 68 48 24 57 -28 120 -87 107 -21 -4 -31 -2 -35 9 -7 17 1 26 23 26 27 0 60 43 60 77 0 23 -9 39 -32 58 -30 26 -45 27 -92 9 -12 -4 -16 0 -16 15 0 12 6 21 14 21 20 0 56 48 56 75 0 40 -37 75 -79 75 -20 0 -42 -5 -49 -12 -9 -9 -15 -9 -24 0 -8 8 -3 18 20 41 23 21 32 38 32 60 0 66 -84 106 -125 61 -14 -15 -21 -17 -31 -9 -11 9 -9 17 11 41 30 36 32 67 4 102 -27 34 -82 36 -116 4 -18 -16 -26 -19 -35 -10 -9 9 -8 16 5 30 25 28 22 87 -5 106 -43 30 -104 12 -120 -35 -4 -12 -7 -12 -21 0 -15 12 -15 15 -2 34 22 31 18 65 -10 92 -31 32 -78 33 -109 2 -13 -13 -25 -29 -27 -36 -3 -7 -12 -9 -22 -6 -13 5 -14 11 -7 25 24 46 -2 98 -58 115 -30 9 -71 -18 -84 -56 -15 -43 -41 -39 -32 6 5 30 2 39 -24 65 -18 18 -41 30 -57 30 -33 0 -75 -41 -75 -75 0 -18 -5 -25 -18 -25 -15 0 -18 6 -14 28 5 35 -30 78 -69 87 -19 5 -34 0 -57 -20z m323 -174 c106 -28 254 -96 345 -157 144 -96 310 -276 377 -407 146 -288 174 -611 78 -893 -139 -407 -478 -698 -894 -768 -640 -108 -1239 351 -1311 1004 -37 339 82 673 329 919 163 163 359 269 587 316 106 22 385 14 489 -14z" fill="#808080"/>
<path d="M5368 6483 c12 -2 30 -2 40 0 9 3 -1 5 -23 4 -22 0 -30 -2 -17 -4z" fill="#808080"/>
<path d="M5493 6473 c9 -2 25 -2 35 0 9 3 1 5 -18 5 -19 0 -27 -2 -17 -5z" fill="#808080"/>
<path d="M5578 6463 c7 -3 16 -2 19 1 4 3 -2 6 -13 5 -11 0 -14 -3 -6 -6z" fill="#808080"/>
<path d="M5628 6453 c7 -3 16 -2 19 1 4 3 -2 6 -13 5 -11 0 -14 -3 -6 -6z" fill="#808080"/>
<path d="M5668 6443 c7 -3 16 -2 19 1 4 3 -2 6 -13 5 -11 0 -14 -3 -6 -6z" fill="#808080"/>
<path d="M5390 6415 c0 -23 -4 -25 -47 -26 -30 -1 -37 -4 -20 -6 21 -3 27 -10 27 -29 0 -13 -5 -24 -11 -24 -7 0 -9 9 -6 21 3 13 1 19 -6 16 -7 -2 -13 -13 -15 -25 -3 -20 7 -27 31 -23 4 0 7 -3 7 -9 0 -5 5 -10 10 -10 6 0 10 11 10 25 0 14 5 25 11 25 7 0 9 -9 6 -21 -3 -13 -1 -19 6 -16 7 2 13 13 15 25 3 17 -2 22 -17 22 -32 0 -25 20 7 21 15 0 21 3 15 6 -16 6 -17 29 -2 39 18 11 28 -18 24 -68 -3 -26 -1 -49 4 -52 16 -10 19 87 4 112 -19 31 -53 29 -53 -3z" fill="#808080"/>
<path d="M5150 6390 c0 -32 23 -110 33 -110 5 0 6 14 2 31 -4 17 -8 37 -9 43 -1 6 -5 17 -9 24 -5 6 -5 17 -2 22 3 6 1 10 -4 10 -6 0 -11 -9 -11 -20z" fill="#808080"/>
<path d="M5198 6403 c6 -2 18 -2 25 0 6 3 1 5 -13 5 -14 0 -19 -2 -12 -5z" fill="#808080"/>
<path d="M5800 6400 c8 -5 20 -10 25 -10 6 0 3 5 -5 10 -8 5 -19 10 -25 10 -5 0 -3 -5 5 -10z" fill="#808080"/>
<path d="M5240 6389 c0 -5 -12 -10 -27 -10 -17 -1 -21 -3 -10 -6 12 -3 15 -11 11 -29 -4 -14 -2 -24 5 -24 6 0 11 11 11 25 0 16 6 25 15 25 10 0 15 -10 15 -27 0 -16 5 -35 10 -43 7 -11 10 0 8 37 -2 40 -7 53 -20 57 -10 2 -18 0 -18 -5z" fill="#808080"/>
<path d="M5060 6386 c0 -2 7 -7 16 -10 8 -3 12 -2 9 4 -6 10 -25 14 -25 6z" fill="#808080"/>
<path d="M5573 6367 c9 -8 17 -20 17 -27 0 -10 -4 -9 -17 1 -15 12 -16 12 -9 -6 5 -11 11 -28 13 -37 8 -26 23 -22 20 5 -1 13 3 21 10 20 7 -2 10 4 7 12 -4 9 0 15 9 15 12 0 14 -9 11 -42 -3 -32 -2 -38 5 -23 5 11 10 30 10 43 1 12 7 22 14 23 19 1 -24 15 -68 23 -35 6 -38 5 -22 -7z" fill="#808080"/>
<path d="M5096 6354 c-3 -8 -1 -14 4 -14 6 0 10 -6 10 -12 1 -7 7 -26 15 -43 l15 -30 -6 40 c-4 22 -7 45 -7 52 -1 18 -25 24 -31 7z" fill="#808080"/>
<path d="M5913 6348 c64 -45 148 -95 120 -71 -18 16 -56 41 -85 56 -29 15 -45 22 -35 15z" fill="#808080"/>
<path d="M5025 6325 c-27 -13 -44 -24 -37 -24 6 -1 12 -6 12 -11 0 -6 9 -20 20 -32 18 -20 21 -20 44 -5 18 12 26 13 29 4 11 -26 5 30 -6 59 l-12 32 -50 -23z m45 -14 c12 -23 5 -47 -17 -55 -11 -4 -13 -2 -9 9 3 10 -1 15 -12 15 -15 0 -15 2 -2 10 8 5 16 14 16 20 4 27 10 27 24 1z" fill="#808080"/>
<path d="M5693 6340 c9 -6 17 -18 17 -27 0 -13 -2 -13 -16 -2 -15 12 -16 11 -9 -11 4 -14 12 -32 17 -40 8 -12 8 -12 4 3 -3 10 3 26 15 38 23 23 18 33 -21 43 -21 6 -22 5 -7 -4z" fill="#808080"/>
<path d="M4916 6307 c12 -7 19 -18 16 -26 -2 -8 0 -11 5 -8 5 3 18 -11 28 -31 10 -20 20 -32 22 -25 2 6 -3 25 -12 42 -8 17 -12 31 -8 31 5 1 -7 7 -26 15 -40 18 -54 19 -25 2z" fill="#808080"/>
<path d="M5756 6312 c-4 -6 -4 -16 -1 -22 3 -6 -1 -7 -10 -4 -14 6 -14 3 -4 -20 7 -15 23 -29 35 -32 14 -4 21 -11 17 -20 -11 -29 14 -13 29 19 21 43 22 51 7 56 -6 2 -9 -1 -5 -7 7 -12 -20 -42 -39 -42 -23 0 -26 17 -5 23 11 3 20 12 20 20 0 23 -20 32 -21 10 -1 -12 -3 -10 -8 7 -5 17 -9 21 -15 12z" fill="#808080"/>
<path d="M4874 6277 l29 -13 -28 -12 -28 -13 28 -29 c16 -17 24 -34 20 -42 -3 -7 2 -3 13 9 14 16 22 19 31 10 18 -18 14 7 -9 52 -12 21 -31 42 -43 45 -37 10 -44 6 -13 -7z m40 -44 c4 -9 3 -20 -2 -25 -11 -11 -36 17 -27 32 9 15 22 12 29 -7z" fill="#808080"/>
<path d="M5849 6232 c-8 -21 -15 -40 -17 -44 -2 -5 0 -8 5 -8 4 0 18 18 29 39 16 29 18 41 9 44 -6 3 -18 -10 -26 -31z" fill="#808080"/>
<path d="M5348 6253 c23 -2 61 -2 85 0 23 2 4 4 -43 4 -47 0 -66 -2 -42 -4z" fill="#808080"/>
<path d="M5248 6243 c6 -2 18 -2 25 0 6 3 1 5 -13 5 -14 0 -19 -2 -12 -5z" fill="#808080"/>
<path d="M5925 6226 c32 -27 30 -44 -3 -27 -27 14 -32 14 -32 -4 0 -8 6 -12 14 -9 20 8 29 -12 16 -36 -7 -13 -7 -20 -1 -20 6 0 15 9 21 19 5 11 17 26 25 35 13 13 12 17 -12 34 -45 31 -60 35 -28 8z" fill="#808080"/>
<path d="M6070 6246 c0 -2 8 -10 18 -17 15 -13 16 -12 3 4 -13 16 -21 21 -21 13z" fill="#808080"/>
<path d="M5060 6190 c-8 -5 -10 -10 -5 -10 6 0 17 5 25 10 8 5 11 10 5 10 -5 0 -17 -5 -25 -10z" fill="#808080"/>
<path d="M4610 6145 c-24 -25 -42 -45 -39 -45 3 0 25 20 49 45 24 25 42 45 39 45 -3 0 -25 -20 -49 -45z" fill="#808080"/>
<path d="M5313 6180 c-13 -5 -23 -18 -23 -29 0 -26 -11 -32 -94 -53 -69 -18 -70 -18 -92 3 l-23 22 -43 -23 c-93 -47 -108 -62 -108 -104 0 -33 -7 -46 -54 -93 -49 -49 -58 -54 -91 -51 -37 3 -38 2 -77 -70 l-40 -73 23 -25 23 -24 -20 -83 c-18 -73 -23 -84 -51 -97 -35 -17 -41 -40 -33 -130 5 -51 7 -56 35 -64 27 -8 32 -16 53 -89 l22 -79 -20 -33 -20 -32 39 -64 c38 -62 40 -64 80 -64 37 -1 48 -7 98 -57 54 -55 56 -58 44 -85 -11 -25 -10 -29 11 -46 12 -11 44 -30 69 -43 l47 -23 27 21 c26 20 29 20 78 6 29 -9 63 -19 77 -22 16 -3 29 -16 36 -35 10 -26 17 -30 68 -36 83 -11 121 -1 136 35 8 20 22 32 39 35 14 3 50 13 78 22 50 15 55 15 86 -2 32 -17 34 -17 82 8 80 42 100 61 87 83 -9 16 -2 28 50 80 55 57 63 61 89 54 28 -8 31 -5 79 65 28 41 50 77 50 81 0 4 -10 18 -22 31 l-21 23 19 77 c14 62 25 84 51 109 32 29 33 33 33 110 l0 80 -34 16 c-29 14 -36 26 -55 88 -20 66 -21 74 -7 96 23 35 20 53 -24 121 -38 60 -40 62 -74 56 -31 -5 -40 -1 -90 47 -49 46 -56 58 -56 90 0 43 -3 46 -83 89 l-59 30 -29 -21 -29 -21 -76 19 c-69 17 -78 22 -92 51 -15 32 -17 33 -81 32 -36 0 -76 -4 -88 -9z m265 -160 c127 -45 268 -156 352 -280 91 -133 120 -222 120 -365 0 -179 -46 -298 -161 -419 -40 -42 -76 -73 -81 -68 -15 15 -98 154 -98 164 0 6 17 27 39 48 86 84 135 250 112 378 -27 147 -136 292 -271 363 -64 33 -67 34 -190 34 -120 0 -128 -1 -193 -32 -85 -40 -165 -116 -208 -196 -28 -53 -34 -74 -37 -147 -3 -73 0 -94 22 -154 27 -71 55 -115 109 -173 l31 -33 -64 -122 c-35 -68 -65 -125 -67 -127 -8 -10 -98 89 -144 159 -155 234 -138 541 41 757 95 114 205 184 365 229 74 21 242 12 323 -16z m-3 -194 c76 -37 180 -141 222 -221 81 -154 59 -355 -52 -482 -20 -24 -40 -43 -45 -43 -5 0 -29 34 -54 75 l-46 75 25 74 c14 41 25 93 25 115 0 92 -63 191 -150 237 -50 27 -161 25 -215 -3 -128 -67 -164 -216 -76 -316 14 -17 13 -24 -24 -93 -22 -41 -45 -74 -51 -74 -21 0 -86 82 -118 149 -28 60 -31 75 -31 161 0 87 3 100 30 149 41 75 93 130 159 170 91 54 120 61 236 59 93 -3 112 -7 165 -32z m-97 -182 c47 -19 98 -68 125 -119 15 -29 20 -57 20 -105 -1 -65 -21 -141 -39 -147 -15 -5 -84 122 -84 154 0 38 -33 89 -69 107 -19 10 -32 26 -36 45 -3 16 -13 35 -21 42 -12 10 -14 6 -14 -25 0 -32 -5 -38 -40 -56 -22 -11 -40 -25 -40 -30 0 -13 17 -13 25 0 14 22 20 7 20 -50 l1 -60 -37 0 c-29 0 -38 -5 -47 -25 -16 -36 -30 -31 -52 18 -30 65 -22 127 24 190 48 66 179 97 264 61z m-88 -98 c0 -39 -28 -126 -41 -126 -15 0 -10 72 8 122 18 52 33 54 33 4z m64 -57 c14 -17 26 -41 26 -55 0 -23 -3 -24 -56 -24 -45 0 -55 3 -51 14 3 8 11 33 17 55 13 49 29 52 64 10z m92 -202 c24 -46 24 -48 7 -71 -50 -65 -143 -106 -244 -106 -69 0 -149 23 -149 42 0 6 16 41 36 80 29 53 41 67 53 62 89 -38 97 -39 148 -18 33 13 56 32 73 57 23 36 25 37 38 20 7 -10 25 -39 38 -66z m-243 58 c46 -19 94 -19 130 -1 25 14 26 14 17 -3 -17 -32 -57 -51 -109 -51 -57 0 -96 24 -86 53 8 21 5 20 48 2z m401 -339 c64 -112 118 -211 122 -219 4 -10 -11 -24 -50 -47 l-56 -31 -30 21 -31 22 -52 -21 c-29 -11 -69 -23 -89 -27 -24 -4 -39 -13 -43 -25 -11 -35 -35 -49 -84 -49 -49 0 -71 11 -89 44 -6 13 -40 29 -98 46 -88 27 -89 27 -113 9 -32 -25 -41 -24 -88 10 l-40 29 89 176 c49 97 95 176 103 176 7 0 30 -7 51 -16 29 -12 61 -15 124 -12 97 5 158 29 211 85 18 18 36 33 40 33 4 0 60 -92 123 -204z" fill="#808080"/>
<path d="M5388 5017 c-46 -13 -71 -55 -66 -112 3 -35 6 -40 28 -40 17 0 26 6 28 20 3 20 2 20 -12 1 -14 -17 -16 -17 -22 -3 -11 30 3 48 36 45 16 -1 31 -6 31 -10 1 -4 2 -13 3 -20 0 -6 7 -13 14 -15 9 -4 12 15 12 71 0 42 -3 75 -7 75 -5 -1 -25 -6 -45 -12z m19 -33 c3 -8 0 -21 -7 -27 -10 -10 -12 -7 -7 11 4 18 2 22 -9 18 -9 -3 -12 -1 -9 4 9 15 25 12 32 -6z" fill="#808080"/>
<path d="M5453 4935 c0 -38 2 -53 4 -32 2 20 2 52 0 70 -2 17 -4 1 -4 -38z" fill="#808080"/>
<path d="M5135 4960 c-6 -9 8 -14 28 -11 4 0 7 -4 7 -10 0 -6 -10 -10 -22 -9 -39 3 -43 1 -22 -16 18 -15 18 -15 -5 -10 l-23 5 23 -26 c13 -13 24 -34 24 -46 0 -14 9 -23 28 -28 20 -5 27 -4 27 6 0 8 9 17 20 20 21 7 28 25 10 25 -7 0 -7 6 0 19 13 25 13 31 0 31 -5 0 -10 -7 -10 -15 0 -9 -10 -19 -22 -24 -32 -12 -36 -4 -9 15 32 23 42 56 22 71 -19 15 -67 17 -76 3z m75 -26 c0 -8 -4 -12 -10 -9 -5 3 -10 10 -10 16 0 5 5 9 10 9 6 0 10 -7 10 -16z" fill="#808080"/>
<path d="M5568 4943 c-19 -5 -24 -28 -8 -38 5 -3 7 -12 3 -20 -3 -8 0 -15 6 -15 6 0 20 -9 31 -20 16 -16 20 -17 20 -5 0 9 11 20 24 26 26 12 41 59 23 71 -13 8 -71 9 -99 1z m37 -23 c3 -5 1 -10 -4 -10 -6 0 -11 5 -11 10 0 6 2 10 4 10 3 0 8 -4 11 -10z" fill="#808080"/>
<path d="M6160 6165 c13 -14 26 -25 28 -25 3 0 -5 11 -18 25 -13 14 -26 25 -28 25 -3 0 5 -11 18 -25z" fill="#808080"/>
<path d="M4731 6146 c-28 -29 -30 -34 -12 -29 16 4 21 1 21 -16 0 -22 33 -30 45 -11 3 5 12 7 20 3 22 -8 18 11 -6 33 -12 10 -24 27 -28 37 -6 15 -11 13 -40 -17z m39 -11 c14 -16 5 -54 -9 -39 -14 15 -23 54 -13 54 5 0 15 -7 22 -15z" fill="#808080"/>
<path d="M4933 6121 c-33 -21 -63 -44 -67 -49 -5 -8 118 69 133 84 15 14 -14 -1 -66 -35z" fill="#808080"/>
<path d="M6075 6140 c-4 -6 -11 -8 -16 -5 -5 4 -9 1 -9 -6 0 -7 -12 -25 -27 -41 -14 -15 -24 -31 -20 -34 9 -9 74 47 81 71 6 19 7 19 26 -4 11 -13 20 -30 20 -39 0 -13 -4 -12 -22 4 l-23 19 19 -23 c20 -23 15 -45 -6 -24 -7 7 -18 12 -25 12 -15 0 -18 -46 -3 -55 6 -4 8 -11 5 -16 -7 -11 -3 -11 19 -3 20 8 21 24 2 24 -18 0 -29 17 -21 31 5 7 13 5 25 -6 27 -24 49 -10 43 28 -9 58 -49 98 -68 67z" fill="#808080"/>
<path d="M4613 6094 c-3 -9 -2 -24 4 -33 7 -11 6 -23 -5 -41 l-16 -25 25 23 c33 29 43 28 23 -3 -20 -30 -11 -45 24 -44 24 2 24 2 5 6 -13 2 -23 11 -23 18 0 23 20 28 41 9 10 -9 22 -14 25 -11 4 3 -8 18 -25 32 -17 15 -31 31 -31 36 0 17 27 9 50 -16 13 -14 28 -25 34 -25 5 0 -2 13 -17 28 -15 15 -27 33 -27 39 0 6 -14 13 -31 17 -45 9 -49 8 -56 -10z m45 -3 c10 -6 10 -10 -3 -21 -18 -15 -42 0 -31 19 8 13 16 14 34 2z" fill="#808080"/>
<path d="M6225 6090 c10 -11 20 -20 23 -20 3 0 -3 9 -13 20 -10 11 -20 20 -23 20 -3 0 3 -9 13 -20z" fill="#808080"/>
<path d="M4539 6063 c-13 -16 -12 -17 4 -4 16 13 21 21 13 21 -2 0 -10 -8 -17 -17z" fill="#808080"/>
<path d="M5930 6066 c0 -2 8 -10 18 -17 15 -13 16 -12 3 4 -13 16 -21 21 -21 13z" fill="#808080"/>
<path d="M4790 6003 l-55 -58 58 55 c53 50 62 60 54 60 -1 0 -27 -26 -57 -57z" fill="#808080"/>
<path d="M6250 6056 c0 -2 8 -10 18 -17 15 -13 16 -12 3 4 -13 16 -21 21 -21 13z" fill="#808080"/>
<path d="M4492 5998 c-31 -46 -92 -162 -92 -175 0 -4 20 28 43 72 23 44 52 95 65 113 13 17 21 32 18 32 -3 0 -18 -19 -34 -42z" fill="#808080"/>
<path d="M6176 5998 c10 -14 21 -24 23 -22 3 3 -6 15 -18 27 l-24 22 19 -27z" fill="#808080"/>
<path d="M4574 5978 c-4 -7 -14 -24 -22 -38 l-14 -25 21 24 c17 19 24 22 34 12 9 -9 9 -14 -3 -21 -23 -14 -8 -19 30 -10 24 5 28 8 13 9 -13 1 -23 7 -23 14 0 6 -7 20 -14 30 -11 14 -16 15 -22 5z" fill="#808080"/>
<path d="M6115 5970 c-4 -12 -2 -27 4 -33 8 -8 11 -5 11 11 0 14 6 22 16 22 10 0 14 -6 10 -15 -3 -9 1 -15 11 -15 14 0 14 2 1 23 -21 30 -45 33 -53 7z" fill="#808080"/>
<path d="M6040 5956 c0 -2 8 -10 18 -17 15 -13 16 -12 3 4 -13 16 -21 21 -21 13z" fill="#808080"/>
<path d="M6210 5955 c0 -4 9 -22 20 -41 13 -19 17 -35 11 -39 -6 -3 -17 8 -26 25 -11 21 -21 30 -31 26 -9 -3 -18 -6 -20 -6 -2 0 -3 -12 -3 -27 2 -24 2 -25 6 -5 2 12 11 22 20 22 9 0 13 -6 10 -14 -3 -8 2 -17 11 -21 16 -6 15 -8 -2 -21 -11 -7 -17 -17 -13 -20 6 -6 69 34 75 48 8 18 33 7 30 -12 -2 -12 -7 -20 -12 -20 -5 1 -12 -3 -15 -8 -3 -5 -21 -17 -39 -26 -19 -10 -32 -20 -29 -22 7 -7 80 29 94 46 28 34 6 78 -31 64 -8 -3 -17 3 -20 14 -7 21 -36 51 -36 37z" fill="#808080"/>
<path d="M6335 5930 c9 -16 18 -30 21 -30 2 0 -2 14 -11 30 -9 17 -18 30 -21 30 -2 0 2 -13 11 -30z" fill="#808080"/>
<path d="M4709 5913 c-13 -16 -12 -17 4 -4 16 13 21 21 13 21 -2 0 -10 -8 -17 -17z" fill="#808080"/>
<path d="M4527 5903 c-4 -3 -7 -11 -7 -16 0 -6 3 -8 6 -4 4 3 24 -3 45 -14 49 -24 51 -8 3 20 -40 24 -38 23 -47 14z" fill="#808080"/>
<path d="M4506 5862 c-9 -8 -7 -22 2 -21 19 3 33 -2 27 -11 -3 -5 -17 -10 -31 -10 -16 0 -24 -6 -24 -17 0 -16 2 -16 10 -3 9 13 12 13 25 -4 16 -21 37 -13 28 11 -5 13 -2 15 20 9 15 -3 27 -3 27 1 0 11 -78 52 -84 45z" fill="#808080"/>
<path d="M4660 5840 c-6 -11 -8 -20 -6 -20 3 0 10 9 16 20 6 11 8 20 6 20 -3 0 -10 -9 -16 -20z" fill="#808080"/>
<path d="M4386 5795 c-9 -26 -7 -32 5 -12 6 10 9 21 6 23 -2 3 -7 -2 -11 -11z" fill="#808080"/>
<path d="M4356 5704 c-4 -14 -5 -28 -3 -31 3 -2 8 8 11 23 4 14 5 28 3 31 -3 2 -8 -8 -11 -23z" fill="#808080"/>
<path d="M4335 5620 c-4 -23 -5 -43 -2 -46 2 -3 7 14 11 37 4 23 5 44 2 46 -2 2 -7 -14 -11 -37z" fill="#808080"/>
<path d="M6451 5634 c0 -11 3 -14 6 -6 3 7 2 16 -1 19 -3 4 -6 -2 -5 -13z" fill="#808080"/>
<path d="M6462 5580 c0 -14 2 -19 5 -12 2 6 2 18 0 25 -3 6 -5 1 -5 -13z" fill="#808080"/>
<path d="M4323 5520 c0 -25 2 -35 4 -22 2 12 2 32 0 45 -2 12 -4 2 -4 -23z" fill="#808080"/>
<path d="M4432 5528 c-17 -17 -15 -36 6 -47 13 -7 23 -6 30 1 17 17 15 45 -4 52 -20 8 -18 8 -32 -6z" fill="#808080"/>
<path d="M6362 5508 c4 -31 53 -34 53 -3 0 15 -8 21 -28 23 -25 3 -28 0 -25 -20z" fill="#808080"/>
<path d="M6473 5495 c0 -22 2 -30 4 -17 2 12 2 30 0 40 -3 9 -5 -1 -4 -23z" fill="#808080"/>
<path d="M4315 5360 c4 -99 23 -226 32 -216 2 2 -1 30 -7 63 -6 32 -15 103 -20 158 l-9 100 4 -105z" fill="#808080"/>
<path d="M6252 5400 c0 -14 2 -19 5 -12 2 6 2 18 0 25 -3 6 -5 1 -5 -13z" fill="#808080"/>
<path d="M6473 5310 c0 -25 2 -35 4 -22 2 12 2 32 0 45 -2 12 -4 2 -4 -23z" fill="#808080"/>
<path d="M6241 5274 c0 -11 3 -14 6 -6 3 7 2 16 -1 19 -3 4 -6 -2 -5 -13z" fill="#808080"/>
<path d="M6462 5220 c0 -14 2 -19 5 -12 2 6 2 18 0 25 -3 6 -5 1 -5 -13z" fill="#808080"/>
<path d="M4423 5223 c-31 -6 -29 -23 1 -23 31 0 56 10 56 21 0 9 -17 10 -57 2z" fill="#808080"/>
<path d="M6231 5214 c0 -11 3 -14 6 -6 3 7 2 16 -1 19 -3 4 -6 -2 -5 -13z" fill="#808080"/>
<path d="M6320 5219 c0 -10 27 -19 56 -19 14 0 23 4 20 9 -7 11 -76 20 -76 10z" fill="#808080"/>
<path d="M4561 5194 c0 -11 3 -14 6 -6 3 7 2 16 -1 19 -3 4 -6 -2 -5 -13z" fill="#808080"/>
<path d="M4465 5185 c-5 -2 -22 -6 -37 -9 -16 -4 -28 -11 -28 -17 0 -7 10 -9 27 -4 26 6 27 6 10 -13 -25 -27 -22 -46 6 -38 12 3 30 6 40 6 9 0 17 5 17 10 0 6 -10 10 -22 10 -20 0 -20 1 -5 18 26 29 22 47 -8 37z" fill="#808080"/>
<path d="M6305 5180 c-3 -4 2 -10 10 -14 20 -7 19 -36 0 -36 -27 0 -15 -17 16 -24 42 -8 49 -8 49 4 0 6 -7 10 -15 10 -8 0 -15 7 -15 15 0 8 9 15 20 15 11 0 20 4 20 9 0 11 -79 31 -85 21z" fill="#808080"/>
<path d="M6452 5170 c0 -14 2 -19 5 -12 2 6 2 18 0 25 -3 6 -5 1 -5 -13z" fill="#808080"/>
<path d="M6441 5124 c0 -11 3 -14 6 -6 3 7 2 16 -1 19 -3 4 -6 -2 -5 -13z" fill="#808080"/>
<path d="M4350 5124 c0 -20 47 -150 80 -214 101 -200 278 -378 476 -480 170 -87 350 -126 538 -117 99 5 263 33 253 43 -2 3 -37 -3 -78 -13 -110 -25 -336 -23 -456 5 -179 41 -368 143 -506 272 -110 103 -216 266 -272 422 -19 51 -34 88 -35 82z" fill="#808080"/>
<path d="M6196 5105 c-9 -26 -7 -32 5 -12 6 10 9 21 6 23 -2 3 -7 -2 -11 -11z" fill="#808080"/>
<path d="M4471 5085 c-42 -14 -49 -30 -25 -56 30 -33 74 -18 74 26 0 36 -12 43 -49 30z m32 -29 c1 -5 -6 -14 -15 -20 -13 -8 -21 -7 -30 2 -10 10 -10 15 2 22 17 11 40 9 43 -4z" fill="#808080"/>
<path d="M6346 5064 c-5 -13 -14 -15 -41 -10 -48 9 -44 -9 4 -22 39 -9 40 -9 50 19 10 30 -2 42 -13 13z" fill="#808080"/>
<path d="M6150 5003 c-92 -178 -242 -316 -425 -390 -79 -32 -160 -52 -285 -72 l-65 -10 70 5 c146 11 299 61 416 136 76 49 182 149 234 223 43 60 99 164 93 170 -2 2 -19 -26 -38 -62z" fill="#808080"/>
<path d="M6252 5005 c-7 -14 -12 -28 -12 -30 0 -6 72 -36 75 -33 11 14 26 51 22 55 -3 2 -10 -5 -17 -16 -6 -12 -15 -19 -21 -16 -5 4 -5 13 1 26 13 24 2 25 -16 2 -17 -24 -29 -10 -14 16 6 12 7 21 2 21 -5 0 -14 -11 -20 -25z" fill="#808080"/>
<path d="M4492 4994 c-18 -8 -30 -19 -27 -24 7 -11 68 13 73 29 5 14 -5 13 -46 -5z" fill="#808080"/>
<path d="M6396 4995 c-9 -26 -7 -32 5 -12 6 10 9 21 6 23 -2 3 -7 -2 -11 -11z" fill="#808080"/>
<path d="M4650 4970 c6 -11 13 -20 16 -20 2 0 0 9 -6 20 -6 11 -13 20 -16 20 -2 0 0 -9 6 -20z" fill="#808080"/>
<path d="M4491 4941 c-11 -7 -11 -10 2 -17 8 -5 17 -20 19 -33 l3 -25 33 33 c17 18 30 37 26 42 -7 11 -65 12 -83 0z m56 -17 c-3 -3 -12 -4 -19 -1 -8 3 -5 6 6 6 11 1 17 -2 13 -5z" fill="#808080"/>
<path d="M6210 4920 c-13 -25 -8 -36 31 -55 28 -15 30 -15 41 10 15 34 1 59 -35 63 -18 2 -29 -3 -37 -18z m57 -15 c3 -9 3 -18 0 -21 -9 -9 -48 16 -42 27 9 14 35 11 42 -6z" fill="#808080"/>
<path d="M6330 4863 c-18 -32 -48 -80 -67 -108 -22 -31 -26 -40 -10 -23 32 34 121 177 114 184 -2 3 -19 -21 -37 -53z" fill="#808080"/>
<path d="M4701 4895 c63 -91 191 -207 272 -245 23 -11 33 -15 23 -8 -10 7 -44 30 -75 50 -61 40 -136 108 -195 178 -22 25 -33 36 -25 25z" fill="#808080"/>
<path d="M4563 4878 c-36 -22 -44 -43 -13 -33 22 7 24 2 10 -25 -15 -28 2 -32 38 -10 35 22 46 48 12 30 -23 -12 -25 -7 -9 22 16 30 -2 38 -38 16z" fill="#808080"/>
<path d="M6164 4825 c5 -18 3 -23 -8 -19 -8 3 -17 1 -21 -5 -3 -7 3 -11 15 -11 12 0 30 -5 42 -11 26 -14 35 -4 15 16 -9 8 -19 24 -22 35 -9 29 -28 25 -21 -5z" fill="#808080"/>
<path d="M4635 4765 c-16 -13 -26 -27 -23 -31 10 -9 69 36 63 47 -8 11 -5 13 -40 -16z" fill="#808080"/>
<path d="M6092 4758 c-17 -17 -15 -42 6 -61 24 -22 51 -22 59 1 4 9 11 20 17 25 7 5 4 12 -8 22 -16 12 -22 12 -28 2 -11 -18 -10 -29 3 -21 7 4 10 1 7 -7 -6 -19 -29 -18 -42 3 -8 14 -6 21 9 32 16 12 17 15 5 16 -9 0 -21 -5 -28 -12z" fill="#808080"/>
<path d="M4665 4730 c-29 -31 -28 -54 1 -29 15 12 16 11 10 -8 -13 -39 4 -47 35 -17 16 15 29 32 29 38 0 6 -5 5 -12 -2 -19 -19 -29 -14 -22 12 9 36 -10 39 -41 6z" fill="#808080"/>
<path d="M6026 4684 c-20 -19 -20 -24 0 -52 26 -37 74 -23 74 23 0 42 -44 59 -74 29z m52 -32 c2 -14 -2 -22 -11 -22 -19 0 -40 26 -32 40 11 18 40 6 43 -18z" fill="#808080"/>
<path d="M6170 4645 c-75 -76 -197 -161 -310 -217 -52 -26 -91 -47 -85 -48 25 -1 202 96 272 149 69 53 196 171 182 171 -2 0 -29 -25 -59 -55z" fill="#808080"/>
<path d="M4744 4645 c4 -22 3 -35 -4 -35 -5 0 -10 7 -10 15 0 8 -4 15 -10 15 -15 0 -12 -17 6 -35 25 -24 39 -12 37 31 -2 36 -1 38 12 20 8 -11 18 -17 21 -13 11 11 -17 37 -38 37 -18 0 -19 -5 -14 -35z" fill="#808080"/>
<path d="M4816 4626 c3 -8 -2 -26 -12 -41 -23 -35 -9 -45 17 -11 12 15 28 25 35 22 22 -8 16 11 -8 28 -28 20 -39 20 -32 2z" fill="#808080"/>
<path d="M5040 4615 c35 -20 176 -65 203 -64 12 0 -11 9 -51 19 -40 11 -93 28 -118 40 -54 23 -70 26 -34 5z" fill="#808080"/>
<path d="M5948 4624 c-3 -5 7 -24 23 -43 28 -34 29 -34 49 -16 26 23 26 39 0 25 -17 -9 -24 -6 -44 16 -12 15 -25 23 -28 18z" fill="#808080"/>
<path d="M4874 4578 c-4 -7 -14 -23 -21 -35 -9 -13 -10 -23 -4 -27 8 -5 51 51 51 68 0 11 -19 6 -26 -6z" fill="#808080"/>
<path d="M5880 4569 c-9 -16 -8 -26 5 -45 26 -39 75 -26 75 21 0 45 -60 63 -80 24z m60 -25 c0 -22 -22 -28 -36 -9 -18 24 1 52 22 34 8 -6 14 -17 14 -25z" fill="#808080"/>
<path d="M4918 4557 c7 -8 6 -19 -3 -37 -17 -29 -18 -40 -7 -40 5 0 14 11 20 25 14 30 59 37 47 8 -5 -10 -8 -29 -9 -43 -1 -20 4 -26 26 -28 21 -3 30 3 42 27 19 35 19 41 6 41 -5 0 -17 -14 -26 -31 -11 -23 -19 -28 -27 -20 -7 7 -7 18 2 37 6 15 10 27 9 29 -23 15 -77 45 -83 45 -4 0 -3 -6 3 -13z" fill="#808080"/>
<path d="M5288 4543 c12 -2 32 -2 45 0 12 2 2 4 -23 4 -25 0 -35 -2 -22 -4z" fill="#808080"/>
<path d="M5840 4531 c15 -30 12 -33 -15 -15 -35 23 -47 10 -28 -31 18 -37 39 -48 28 -15 -7 23 -2 25 25 8 10 -7 22 -9 26 -5 10 9 -22 77 -36 77 -7 0 -8 -6 0 -19z" fill="#808080"/>
<path d="M5750 4490 c0 -22 -26 -28 -33 -7 -2 6 -8 9 -12 5 -8 -8 16 -78 27 -78 4 0 8 9 8 19 0 27 17 35 29 14 16 -29 24 -7 11 31 -13 39 -30 48 -30 16z" fill="#808080"/>
<path d="M5060 4491 c0 -5 5 -11 11 -13 9 -3 9 -9 0 -25 -13 -26 -14 -43 -2 -43 5 0 14 14 20 30 6 18 17 30 28 30 11 1 4 7 -16 15 -39 18 -41 18 -41 6z" fill="#808080"/>
<path d="M5130 4440 c-6 -23 -10 -43 -8 -45 2 -2 16 -7 32 -11 21 -5 27 -4 22 5 -4 6 -14 11 -22 11 -27 0 -14 20 14 21 27 0 27 1 5 11 -31 15 -29 26 2 20 15 -2 25 0 25 7 0 6 -6 11 -14 11 -8 0 -21 3 -30 6 -11 4 -18 -5 -26 -36z" fill="#808080"/>
<path d="M5625 4456 c-13 -19 -14 -29 -5 -45 14 -27 56 -28 70 -1 7 14 7 20 0 20 -5 0 -10 -4 -10 -10 0 -5 -9 -10 -20 -10 -15 0 -20 7 -20 25 0 20 5 25 26 25 14 0 23 4 19 10 -11 18 -44 10 -60 -14z" fill="#808080"/>
<path d="M5547 4453 c-14 -4 -17 -11 -13 -26 3 -12 6 -30 6 -39 0 -14 8 -18 35 -18 19 0 35 5 35 11 0 6 -9 9 -20 6 -29 -7 -36 11 -8 22 l23 10 -22 0 c-29 1 -31 21 -2 21 11 0 17 5 14 10 -6 10 -17 11 -48 3z" fill="#808080"/>
<path d="M5248 4424 c-16 -34 0 -59 37 -59 37 0 53 25 37 59 -8 18 -19 26 -37 26 -18 0 -29 -8 -37 -26z m58 -9 c4 -8 0 -22 -7 -31 -10 -13 -14 -13 -26 -1 -16 16 -7 47 13 47 8 0 17 -7 20 -15z" fill="#808080"/>
<path d="M5465 4440 c-11 -5 -15 -9 -9 -9 7 -1 15 -17 18 -36 4 -19 11 -35 16 -35 6 0 10 16 10 35 0 19 5 35 11 35 5 0 7 5 4 10 -7 12 -23 12 -50 0z" fill="#808080"/>
<path d="M5350 4416 c0 -13 -3 -31 -6 -40 -4 -11 -1 -16 10 -16 9 0 16 6 16 14 0 8 8 17 18 19 16 4 16 5 0 6 -10 0 -18 8 -18 17 0 11 6 14 20 9 11 -4 20 -2 20 4 0 6 -13 11 -30 11 -25 0 -30 -4 -30 -24z" fill="#808080"/>
<path d="M1305 6120 l-400 -230 -7 -207 c-4 -114 -6 -209 -3 -211 2 -3 110 57 239 132 129 75 238 136 240 136 3 0 7 -248 8 -552 l3 -552 160 -92 160 -93 3 474 c1 261 1 689 0 950 l-3 474 -400 -229z" fill="#808080"/>
<path d="M1780 5401 l0 -951 53 30 c28 17 100 58 160 92 l107 62 0 268 c0 147 2 268 5 268 4 0 123 -68 213 -122 l32 -20 0 184 0 184 -122 69 -123 70 -3 103 c-1 56 1 102 6 102 5 0 103 -54 218 -121 115 -66 221 -127 237 -135 l27 -15 0 208 0 208 -382 220 c-211 120 -393 225 -405 233 l-23 14 0 -951z" fill="#808080"/>
<path d="M8260 5400 l0 -950 950 0 950 0 0 950 0 950 -950 0 -950 0 0 -950z m678 288 c1 -139 6 -248 11 -248 5 0 119 112 253 250 l243 250 83 0 c66 0 84 -3 89 -16 4 -11 -51 -73 -195 -217 l-201 -202 216 -313 c139 -202 212 -317 206 -323 -6 -6 -45 -9 -89 -7 l-78 3 -180 266 -180 267 -88 -82 -88 -81 0 -187 0 -188 -70 0 -70 0 0 540 0 541 68 -3 67 -3 3 -247z" fill="#808080"/>
<path d="M3140 4028 c0 -2 -2 -35 -4 -73 -3 -72 -30 -151 -64 -188 -9 -11 -61 -50 -114 -88 -127 -91 -194 -159 -231 -237 -38 -81 -34 -142 15 -233 43 -81 168 -215 191 -206 16 6 16 10 -4 49 -40 78 -70 182 -76 258 -5 72 -4 77 22 109 16 18 67 65 114 104 179 150 221 212 221 331 0 54 -6 84 -25 124 -13 28 -29 52 -35 52 -5 0 -10 -1 -10 -2z" fill="#808080"/>
<path d="M7518 3689 c-25 -14 -22 -42 8 -78 l26 -31 -36 -33 c-32 -29 -35 -38 -30 -66 7 -36 -16 -71 -48 -71 -29 0 -60 -37 -49 -58 8 -15 4 -22 -20 -36 -32 -19 -59 -63 -59 -97 0 -12 11 -50 24 -84 14 -33 36 -108 50 -166 87 -369 304 -678 586 -837 123 -69 308 -112 545 -127 116 -7 354 15 428 41 26 9 62 14 79 12 17 -3 43 1 57 8 14 8 35 14 47 14 12 0 35 5 53 11 27 9 32 16 29 38 -3 25 -6 26 -73 29 -38 2 -74 7 -79 12 -5 5 -18 2 -32 -6 -18 -12 -30 -13 -61 -5 -21 6 -55 11 -75 11 -43 0 -50 16 -18 45 28 25 26 55 -4 55 -29 0 -79 -38 -69 -53 3 -7 2 -9 -2 -4 -5 4 -19 -3 -32 -15 l-24 -23 -87 23 c-175 45 -320 133 -428 259 -124 146 -165 227 -199 388 -18 87 -46 405 -38 435 7 28 33 32 89 15 86 -26 121 -13 75 29 -20 18 -148 75 -169 76 -7 0 -30 11 -50 25 -20 14 -44 25 -53 25 -9 0 -19 9 -22 20 -3 11 -17 22 -33 26 -99 22 -103 24 -106 52 -3 25 -7 27 -58 32 l-55 5 0 44 c-1 60 -40 88 -87 60z m60 -22 c3 -13 -3 -17 -27 -17 -33 0 -39 8 -19 28 17 17 42 11 46 -11z m75 -114 c-7 -2 -19 -2 -25 0 -7 3 -2 5 12 5 14 0 19 -2 13 -5z m32 -57 c19 -8 35 -18 35 -21 0 -3 -4 -3 -10 0 -5 3 -10 -3 -10 -14 0 -28 -25 -27 -44 1 -16 22 -21 48 -11 48 3 0 21 -7 40 -14z m-51 -35 c3 -5 -14 -11 -39 -13 -51 -4 -55 -1 -22 12 29 12 54 12 61 1z m143 -26 c-4 -8 -2 -17 3 -20 6 -4 10 -11 10 -17 0 -7 -5 -7 -14 1 -11 9 -15 6 -19 -15 -4 -25 -3 -26 32 -19 20 3 44 8 53 11 12 4 15 0 11 -14 -6 -23 14 -39 29 -24 8 8 7 16 -2 27 -12 14 -6 16 60 13 44 -2 75 -8 77 -14 2 -7 -6 -24 -19 -38 -26 -30 -126 -60 -237 -71 -40 -4 -92 -19 -134 -38 -52 -23 -70 -28 -76 -18 -10 16 -58 5 -65 -16 -13 -34 -81 14 -70 50 5 16 3 17 -14 8 -22 -12 -32 -31 -33 -64 l0 -22 -11 22 c-6 12 -8 33 -4 46 6 26 19 34 74 47 28 7 32 5 32 -11 0 -12 11 -24 27 -30 27 -10 65 -3 48 9 -6 4 -16 17 -22 29 -12 21 -10 23 30 33 61 15 191 52 195 55 7 6 -42 54 -50 49 -4 -3 -6 -10 -3 -15 4 -5 -6 -4 -21 1 -14 6 -43 8 -63 6 -20 -3 -29 -3 -21 0 14 4 190 52 199 53 2 1 1 -6 -2 -14z m-217 -49 c0 -2 -9 -6 -20 -9 -11 -3 -18 -1 -14 4 5 9 34 13 34 5z m-110 -36 c-8 -5 -19 -10 -25 -10 -5 0 -3 5 5 10 8 5 20 10 25 10 6 0 3 -5 -5 -10z m690 -30 c8 -5 12 -11 9 -14 -3 -3 -14 1 -25 9 -21 16 -8 20 16 5z m-175 -135 c0 -38 4 -76 8 -83 5 -7 7 -34 6 -60 -1 -27 1 -54 5 -61 4 -6 5 -24 1 -38 -4 -17 -1 -29 7 -35 10 -7 9 -11 -4 -22 -10 -7 -18 -19 -18 -26 0 -9 3 -10 13 -1 11 9 18 -6 37 -82 12 -50 27 -97 32 -104 7 -9 4 -18 -7 -30 -17 -16 -17 -17 0 -23 9 -3 23 -17 31 -31 7 -13 13 -18 14 -10 0 19 39 -22 78 -85 18 -28 41 -59 52 -69 11 -10 20 -24 20 -31 0 -26 56 -78 115 -105 33 -16 65 -29 71 -29 6 0 19 -9 30 -21 25 -28 67 -49 99 -49 14 0 25 -4 25 -10 0 -5 25 -17 57 -26 47 -14 53 -18 38 -27 -21 -11 -91 3 -164 35 -49 21 -93 25 -130 13 -18 -5 -22 -4 -16 6 5 8 -1 6 -12 -3 -24 -22 -39 -23 -51 -2 -5 9 -21 18 -35 19 -38 4 -46 12 -41 39 4 21 0 24 -45 30 -48 6 -103 38 -89 51 10 10 48 -4 45 -17 -2 -13 41 -27 61 -20 9 3 1 18 -25 44 -48 50 -80 67 -118 61 -18 -2 -38 2 -50 11 -19 15 -18 15 12 5 68 -23 52 -1 -25 34 -44 20 -84 42 -88 48 -4 7 -3 10 2 8 5 -3 25 -13 45 -24 20 -10 44 -15 53 -12 26 10 4 50 -41 72 -22 11 -48 27 -58 35 -17 14 -16 15 6 20 35 8 34 34 -1 72 l-30 33 10 -29 c13 -36 4 -48 -9 -13 -13 33 -51 56 -51 30 0 -12 -3 -14 -11 -6 -6 6 -17 9 -24 7 -16 -6 -25 7 -31 44 -2 15 -16 37 -29 49 -31 28 -31 31 0 25 29 -5 33 12 10 41 -7 11 -11 25 -8 33 3 8 -1 14 -8 14 -7 0 -9 -3 -6 -6 6 -6 -35 -44 -47 -44 -3 0 -6 16 -6 36 0 21 -4 33 -10 29 -5 -3 -10 -20 -10 -36 0 -18 -4 -28 -10 -24 -19 12 -10 -9 15 -35 22 -23 24 -29 11 -39 -19 -16 -36 -6 -36 20 0 10 -10 29 -22 41 -13 13 -22 28 -20 34 1 6 -7 19 -17 28 -16 15 -18 21 -8 37 6 10 19 19 28 19 21 0 31 -24 17 -38 -7 -7 -6 -17 1 -31 17 -31 31 -26 31 12 0 42 -25 77 -55 77 -14 0 -29 9 -35 20 -13 25 11 55 53 65 37 10 40 18 23 59 -17 40 -13 46 26 46 15 0 37 9 48 20 11 11 29 20 40 20 11 0 23 6 26 14 4 11 13 12 37 5 42 -12 46 -11 23 6 -17 13 -15 14 20 24 121 30 119 31 119 -54z m-370 -75 c0 -8 -10 -16 -22 -18 -13 -2 -23 2 -23 8 0 6 6 8 13 5 6 -4 3 1 -8 10 -19 16 -19 16 10 13 19 -2 30 -9 30 -18z m-85 -14 c0 -11 -19 -15 -25 -6 -3 5 1 10 9 10 9 0 16 -2 16 -4z m0 -82 c0 -2 -7 -4 -15 -4 -8 0 -15 4 -15 10 0 5 7 7 15 4 8 -4 15 -8 15 -10z m-76 -30 c3 -8 2 -12 -4 -9 -6 3 -10 10 -10 16 0 14 7 11 14 -7z m66 6 c0 -5 -4 -10 -10 -10 -5 0 -10 5 -10 10 0 6 5 10 10 10 6 0 10 -4 10 -10z m-24 -120 c2 -14 12 -51 23 -82 13 -43 14 -55 5 -47 -8 6 -14 9 -14 5 0 -24 117 -212 141 -226 4 -3 18 -27 29 -53 13 -30 30 -51 46 -57 13 -5 24 -14 24 -19 0 -14 83 -93 117 -111 15 -9 29 -23 31 -33 11 -54 -163 93 -216 183 -14 25 -51 81 -80 125 -58 85 -106 181 -97 195 3 5 -10 43 -29 84 -34 74 -37 94 -10 59 12 -16 13 -14 4 12 -10 28 -9 29 5 10 9 -11 18 -31 21 -45z m264 -150 c0 -9 9 -27 20 -40 18 -21 26 -40 16 -40 -12 0 -122 55 -128 64 -15 22 -9 39 12 32 67 -21 63 -21 57 10 -5 27 -4 27 9 9 8 -10 14 -26 14 -35z m135 -100 c3 -5 1 -10 -4 -10 -6 0 -11 5 -11 10 0 6 2 10 4 10 3 0 8 -4 11 -10z m-45 -20 c3 0 -4 -7 -15 -16 -23 -17 -25 -12 20 -71 19 -25 35 -50 35 -54 0 -5 -27 6 -59 24 -33 17 -56 33 -50 35 5 2 -3 19 -17 37 -25 33 -25 33 -5 40 12 3 21 10 21 15 0 5 15 4 32 -1 18 -5 35 -9 38 -9z m100 -170 c8 -5 11 -10 5 -10 -5 0 -17 5 -25 10 -8 5 -10 10 -5 10 6 0 17 -5 25 -10z m-37 -32 c48 -14 48 -28 -1 -28 -38 0 -82 22 -82 41 0 10 11 9 83 -13z m124 -35 c-8 -7 -77 27 -77 38 0 5 18 0 41 -11 23 -12 39 -24 36 -27z m13 -23 c8 -5 11 -10 5 -10 -5 0 -17 5 -25 10 -8 5 -10 10 -5 10 6 0 17 -5 25 -10z m0 -45 c16 -9 19 -14 9 -15 -8 0 -24 7 -35 15 -24 18 -7 19 26 0z m70 -65 c0 -5 -2 -10 -4 -10 -3 0 -8 5 -11 10 -3 6 -1 10 4 10 6 0 11 -4 11 -10z m18 -103 c10 4 13 2 8 -5 -7 -12 8 -16 44 -14 19 1 130 -25 138 -32 11 -11 -43 -5 -83 9 -58 21 -68 17 -13 -5 47 -19 189 -41 243 -38 79 5 199 -3 185 -12 -38 -25 -375 7 -494 46 -78 26 -180 74 -173 81 4 3 2 12 -5 20 -6 7 22 -2 61 -21 40 -19 80 -32 89 -29z m350 16 c-2 -11 -14 -18 -31 -20 -31 -2 -36 11 -9 26 26 16 44 13 40 -6z m39 -13 c-2 -11 -7 -23 -12 -27 -4 -5 -5 -3 -2 4 4 6 1 14 -5 16 -10 4 -9 8 2 16 20 14 20 14 17 -9z m363 12 c30 -5 41 -10 32 -16 -18 -11 -164 3 -156 15 6 10 59 11 124 1z m289 -6 c-11 -9 -69 -14 -69 -6 0 6 17 10 37 10 20 0 34 -2 32 -4z m-539 -40 c0 -2 -7 -7 -16 -10 -8 -3 -12 -2 -9 4 6 10 25 14 25 6z" fill="#808080"/>
<path d="M7914 3354 c-18 -14 -18 -15 4 -4 12 6 22 13 22 15 0 8 -5 6 -26 -11z" fill="#808080"/>
<path d="M7691 3321 c-10 -6 1 -8 30 -4 24 3 46 7 48 9 10 9 -65 3 -78 -5z" fill="#808080"/>
<path d="M7615 3280 c3 -5 13 -10 21 -10 8 0 14 5 14 10 0 6 -9 10 -21 10 -11 0 -17 -4 -14 -10z" fill="#808080"/>
<path d="M7577 3263 c-4 -3 5 -12 20 -20 30 -16 41 -10 23 12 -13 16 -32 20 -43 8z" fill="#808080"/>
<path d="M7929 3185 c-12 -20 -19 -64 -13 -79 7 -19 20 -21 27 -3 6 17 -7 95 -14 82z" fill="#808080"/>
<path d="M7705 3080 c7 -24 22 -40 38 -40 11 0 -8 34 -29 51 -15 13 -16 12 -9 -11z" fill="#808080"/>
<path d="M7675 3031 c-18 -7 -17 -10 15 -30 48 -29 61 -26 25 6 -30 27 -27 28 30 8 13 -4 12 -1 -5 9 -28 17 -36 18 -65 7z" fill="#808080"/>
<path d="M7654 2991 c20 -22 9 -30 -13 -8 -10 10 -11 8 -5 -8 7 -18 6 -18 -9 -6 -23 18 -22 -2 1 -22 25 -23 42 -21 42 3 0 11 5 20 11 20 15 0 1 18 -24 31 -22 12 -22 12 -3 -10z" fill="#808080"/>
<path d="M7887 2934 c-19 -19 5 -108 27 -101 12 4 9 69 -3 77 -5 3 -10 11 -12 18 -3 7 -8 10 -12 6z" fill="#808080"/>
<path d="M7956 2927 c3 -10 9 -15 12 -12 3 3 0 11 -7 18 -10 9 -11 8 -5 -6z" fill="#808080"/>
<path d="M7745 2898 c8 -42 24 -78 33 -78 4 0 17 6 27 14 18 13 18 15 -8 50 -32 42 -41 45 -32 14 5 -22 5 -21 -10 2 l-16 25 6 -27z" fill="#808080"/>
<path d="M8016 2675 c4 -8 8 -15 10 -15 2 0 4 7 4 15 0 8 -4 15 -10 15 -5 0 -7 -7 -4 -15z" fill="#808080"/>
<path d="M8157 2443 c3 -12 11 -28 19 -34 21 -17 17 5 -5 32 -20 24 -20 24 -14 2z" fill="#808080"/>
<path d="M8000 2145 c14 -8 30 -14 35 -14 6 0 -1 6 -15 14 -14 8 -29 14 -35 14 -5 0 1 -6 15 -14z" fill="#808080"/>
<path d="M3214 3590 c-117 -58 -210 -130 -241 -185 -42 -74 -23 -177 48 -272 43 -58 50 -98 24 -159 -35 -84 55 -32 112 64 36 62 30 128 -22 214 -22 36 -38 76 -39 94 0 48 42 103 149 194 83 71 105 100 76 100 -4 0 -52 -22 -107 -50z" fill="#808080"/>
<path d="M3435 3012 c-65 -22 -67 -45 -5 -53 113 -13 147 -68 93 -150 -24 -37 -121 -125 -161 -148 -13 -8 -14 -12 -5 -22 9 -9 29 -6 90 16 88 31 156 73 192 118 36 44 40 128 9 182 -41 71 -114 91 -213 57z" fill="#808080"/>
<path d="M2542 2989 c-143 -28 -170 -109 -52 -156 207 -81 705 -41 845 69 40 32 18 39 -68 23 -119 -23 -404 -36 -551 -25 -70 5 -130 11 -133 13 -8 9 38 30 101 47 90 25 84 40 -16 39 -45 -1 -103 -5 -126 -10z" fill="#808080"/>
<path d="M2610 2769 c-34 -14 -60 -39 -60 -59 0 -79 252 -122 500 -86 157 23 250 45 250 59 -1 7 -19 25 -42 41 l-42 29 -95 -18 c-125 -22 -329 -31 -405 -16 -68 13 -78 19 -53 32 42 24 -1 39 -53 18z" fill="#808080"/>
<path d="M5509 2610 c-399 -49 -728 -341 -820 -726 -28 -120 -23 -358 10 -474 85 -291 313 -539 580 -631 49 -17 57 -18 78 -4 21 14 23 22 23 106 l0 90 -59 -7 c-127 -14 -216 35 -271 151 -21 43 -47 79 -80 107 -59 51 -63 68 -16 68 63 0 99 -25 174 -119 44 -54 85 -75 148 -73 75 2 100 15 114 59 7 21 21 50 32 65 l19 28 -28 0 c-40 0 -122 24 -187 53 -139 64 -216 209 -216 407 0 80 19 149 59 212 28 44 29 51 24 121 -3 45 -1 95 7 126 l12 51 43 0 c31 0 68 -13 134 -46 l91 -45 58 12 c78 17 251 17 344 0 75 -13 77 -13 109 9 48 35 139 69 182 70 31 0 39 -4 48 -26 17 -46 22 -137 9 -183 -10 -39 -9 -45 9 -65 61 -65 91 -201 72 -324 -18 -116 -47 -180 -110 -242 -66 -65 -127 -96 -233 -118 l-76 -16 26 -46 c26 -44 27 -50 30 -233 4 -188 4 -188 28 -197 27 -11 68 2 165 50 237 119 417 340 492 605 24 88 34 282 18 385 -48 313 -260 591 -549 722 -141 64 -346 96 -493 78z" fill="#808080"/>
<path d="M2625 2555 c-32 -31 -31 -50 3 -85 51 -50 257 -80 416 -60 96 12 218 48 223 66 2 7 -20 26 -49 44 l-52 32 -115 -16 c-94 -13 -135 -14 -215 -6 -106 11 -116 14 -116 36 0 25 -67 18 -95 -11z" fill="#808080"/>
<path d="M2404 2435 c-82 -15 -134 -39 -135 -63 -2 -32 3 -47 23 -69 98 -105 861 -107 1174 -3 99 33 139 84 96 123 -24 22 -32 21 -32 -3 0 -12 -10 -25 -22 -30 -134 -56 -559 -93 -813 -71 -140 12 -285 39 -285 52 0 8 121 49 146 49 8 0 14 7 14 15 0 19 -64 19 -166 0z" fill="#808080"/>
<path d="M3590 2305 c-30 -19 -95 -46 -145 -60 -120 -35 -360 -49 -672 -40 -204 6 -233 5 -233 -8 0 -18 11 -21 155 -42 153 -24 532 -24 667 -2 163 28 248 70 284 139 24 46 5 50 -56 13z" fill="#808080"/>
</g>
</svg>